<?xml version="1.0" encoding="utf-8"?>
<!DOCTYPE svg PUBLIC "-//W3C//DTD SVG 1.0//EN" "http://www.w3.org/TR/2001/REC-SVG-20010904/DTD/svg10.dtd">
<svg version="1.0" xmlns="http://www.w3.org/2000/svg" width="471px" height="353px" viewBox="0 0 471 353" preserveAspectRatio="xMidYMid meet">
 <g fill="#ffffff">
  <path d="M0 176.50 l0 -176.50 235.50 0 235.50 0 0 176.50 0 176.50 -235.50 0 -235.50 0 0 -176.50z m135.50 129.15 c-0.05 -1.35 -0.05 -1.35 -0.75 -0.45 -0.95 1.25 -0.95 1.80 0 1.80 0.50 0 0.75 -0.50 0.75 -1.35z m-6.10 -45 c-16.20 -0.10 -42.60 -0.10 -58.75 0 -16.20 0.05 -2.95 0.10 29.35 0.10 32.30 0 45.55 -0.05 29.40 -0.10z m236.85 -10.85 c15.20 -2.50 28.35 -7.05 40.40 -13.90 31.20 -17.90 51.85 -47.35 58.10 -82.95 3.95 -22.40 0.25 -46.45 -10.50 -68.25 -17.85 -36.15 -51.40 -59.90 -91.75 -65 -13.90 -1.75 -30.60 -0.15 -45.25 4.35 -30.15 9.30 -54.95 29.90 -69.70 58 -11.70 22.30 -15.85 47.25 -11.75 71.15 5.50 32.20 24.30 60.85 51.65 78.75 15.25 10 31.25 15.85 50.05 18.30 6.50 0.85 22.30 0.65 28.75 -0.45z m-183 -219.50 c-2.45 -9.45 -11.30 -17.75 -21.15 -19.75 -1.85 -0.40 -21.10 -0.55 -62 -0.55 -65.70 0 -63.15 -0.10 -69.55 3.25 -4.70 2.45 -9.70 7.60 -11.80 12 -2.75 5.85 -2.50 -4.30 -2.50 109.25 0 57.05 0.05 86.50 0.10 65.40 l0.15 -38.40 1.95 0 c1.35 0 3 0.60 5.40 1.95 8.05 4.55 12.65 6.75 24.40 11.60 8.75 3.60 25.60 7.40 39.50 8.95 17.60 1.95 41.40 -1.10 60.75 -7.75 9.45 -3.25 20.55 -8.35 27.80 -12.75 2.35 -1.45 3.85 -2 5.25 -2 l1.95 0 0.10 38.90 c0.10 21.35 0.20 -7.50 0.25 -64.15 0.15 -91.25 0.05 -103.30 -0.60 -105.95z m-133.75 188.20 c0 -8.65 -0.05 -9 -1 -9 -0.95 0 -1 0.35 -1 9 0 8.65 0.05 9 1 9 0.95 0 1 -0.35 1 -9z m104 2 c0 -6.70 -0.15 -7.20 -2 -6 -0.65 0.40 -0.60 0.50 0.15 0.50 0.75 0 0.85 0.60 0.85 6 0 3.65 0.20 6 0.50 6 0.30 0 0.50 -2.50 0.50 -6.50z m-45.75 2 c1 -1.95 0.95 -2.15 -0.25 -1.15 -0.55 0.50 -1 1.25 -1 1.75 0 1.30 0.35 1.10 1.25 -0.60z m6.10 -3.10 c-0.10 -0.65 -0.20 -0.25 -0.20 0.85 -0.05 1.10 0.05 1.60 0.20 1.15 0.10 -0.50 0.10 -1.40 0 -2z m17.50 0 c-0.10 -0.65 -0.20 -0.25 -0.20 0.85 -0.05 1.10 0.05 1.60 0.20 1.15 0.10 -0.50 0.10 -1.40 0 -2z m-59.90 -0.75 c0 -2.40 -0.10 -2.70 -0.55 -1.80 -0.45 1 -0.20 4.65 0.35 4.65 0.15 0 0.25 -1.30 0.20 -2.85z m15.05 -1.50 c-0.35 -1.15 -0.40 -0.90 -0.40 1.35 0 2.25 0.05 2.50 0.40 1.40 0.25 -0.80 0.25 -2 0 -2.75z m-30 -4 c0 -1 -0.15 -1.20 -0.55 -0.80 -0.35 0.35 -0.45 0.95 -0.30 1.35 0.50 1.20 0.85 0.95 0.85 -0.55z"/>
  <path d="M316.10 227.70 c-0.85 -0.60 -1.10 -1.25 -1.10 -3 0 -1.50 0.25 -2.30 0.75 -2.50 0.55 -0.25 0.60 -0.55 0.25 -1.20 -0.30 -0.50 -0.50 -2.20 -0.50 -3.70 0 -4.35 0.70 -4.75 8.30 -4.75 5.75 0 6.20 0.05 6.95 1.10 l0.75 1.05 0.75 -1.05 c0.75 -1.10 0.80 -1.10 22.25 -1.15 l21.45 0 0.80 1.50 c0.40 0.80 0.90 1.50 1 1.50 0.10 0 0.60 -0.70 1 -1.50 0.80 -1.50 0.90 -1.55 3.90 -1.40 l3.10 0.15 0 7.75 0 7.75 -2.65 0.15 -2.60 0.15 0 -2.40 0 -2.40 -2.65 0 -2.65 0 0.05 2.25 0 2.25 -8.10 0.15 -8.15 0.10 0 -5.25 0 -5.25 -1.80 0 -1.80 0 0.15 5.15 0.20 5.10 -2.60 0.15 -2.65 0.15 0 -5.25 0 -5.30 -2.30 0 -2.30 0 1.15 0.95 c1.05 0.85 1.20 1.40 1.20 4.30 0 4.40 -0.90 5.25 -5.70 5.25 -4.40 0 -5.55 -0.75 -5.55 -3.80 0 -1.50 0.25 -2.30 0.75 -2.50 0.40 -0.20 0.60 -0.55 0.40 -0.85 -0.15 -0.25 -0.45 -1.20 -0.60 -2.05 l-0.35 -1.50 -1.45 2.45 c-1.20 1.95 -1.50 3.10 -1.50 5.25 l0 2.75 -2.75 0 -2.75 0 0 -3 c0 -2.50 -0.25 -3.35 -1.45 -5.10 -0.80 -1.20 -1.85 -2.15 -2.35 -2.15 -0.80 0 -0.75 0.15 0.30 1.25 1.80 1.75 1.80 6 0 7.95 -1.05 1.15 -1.55 1.30 -4.60 1.30 -2.30 0 -3.80 -0.25 -4.55 -0.80z m53.90 -6.95 c0 -3.45 -0.85 -3.65 -1.10 -0.25 -0.10 2.15 0.05 2.65 1 2.95 0.05 0.05 0.10 -1.20 0.10 -2.70z"/>
  <path d="M283.50 199.50 l0 -8 3 0 c2.85 0 3.05 0.10 4 1.60 l0.95 1.60 0.90 -1.60 c0.85 -1.50 1.05 -1.60 4 -1.60 l3.10 0 0.15 3.65 0.15 3.60 1.30 -3.50 1.35 -3.50 2.80 0 2.85 0 2.20 5.50 2.20 5.50 0 -5.60 0.05 -5.65 2.95 0 c3 0 3 0 4.65 2.30 l1.65 2.35 0.15 -2.35 0.15 -2.35 2.60 0.15 2.60 0.15 -0.10 4.25 -0.15 4.25 1.70 -4.25 1.70 -4.25 2.85 0 2.85 0 1.30 3.50 1.30 3.45 0.45 -1.65 c1.05 -4.05 3.20 -5.55 8.05 -5.55 4.70 0 5.80 0.65 5.80 3.30 0 1.40 0.25 2.20 0.75 2.40 0.60 0.20 0.75 -0.25 0.75 -2.70 l0 -3 8.40 0 8.40 0 0.90 1.55 0.90 1.55 0.95 -1.55 c0.90 -1.45 1.10 -1.55 3.95 -1.55 l3 0 0 8 0 8 -2.75 0 -2.75 0 0 -2.20 0 -2.20 -2.50 -0.20 -2.50 -0.15 0 2.40 0 2.35 -8 0 -8 0 -0.05 -2.10 c0 -1.70 -0.10 -1.95 -0.45 -1.10 -0.90 2.25 -2.90 3.20 -6.60 3.20 -2.10 0 -4 -0.30 -4.90 -0.75 -1.35 -0.70 -1.50 -0.70 -1.50 0 0 0.60 -0.60 0.75 -2.75 0.75 -2.50 0 -2.80 -0.10 -3.25 -1.25 -0.35 -0.90 -0.85 -1.25 -1.75 -1.25 -0.90 0 -1.40 0.35 -1.75 1.25 -0.45 1.20 -0.60 1.25 -5.15 1.25 l-4.70 0 -1.85 -2.60 -1.80 -2.60 0 2.60 0 2.60 -5.25 0 c-5.15 0 -5.30 -0.05 -5.75 -1.25 -0.35 -0.90 -0.85 -1.25 -1.75 -1.25 -0.90 0 -1.40 0.35 -1.75 1.25 -0.45 1.20 -0.65 1.25 -5 1.25 l-4.50 0 0 -2.35 0 -2.40 -2.50 0.15 -2.50 0.20 0 2.20 0 2.20 -2.75 0 -2.75 0 0 -8z m81.45 -0.10 c-0.05 -2.75 -0.25 -2.50 -0.55 0.75 -0.10 1 0 1.85 0.20 1.85 0.20 0 0.35 -1.20 0.35 -2.60z"/>
  <path d="M381.50 199.50 l0 -8 8.35 0.10 8.35 0.15 1.65 2.15 1.65 2.20 0 -2.30 0 -2.30 9.15 0.10 9.10 0.15 0.15 1.90 c0.20 2.35 -0.55 3.35 -2.45 3.35 l-1.40 0 -0.15 5.15 -0.15 5.10 -2.60 0.15 -2.65 0.15 0 -5.25 0 -5.30 -1.75 0 -1.75 0 0 5.25 0 5.25 -2.85 0 -2.90 -0.05 -1.75 -2.55 -1.75 -2.60 -0.15 2.60 -0.15 2.60 -8 0 -7.95 0 0 -8z m10.45 -0.10 c-0.05 -2.75 -0.25 -2.50 -0.55 0.75 -0.10 1 0 1.85 0.20 1.85 0.20 0 0.35 -1.20 0.35 -2.60z"/>
  <path d="M307.15 186.50 c-2.25 -1.35 -3.15 -3.40 -3.15 -7.10 0 -3.65 1.10 -5.90 3.45 -7.15 1.70 -0.85 6.80 -1 8.75 -0.25 0.85 0.30 1.30 0.30 1.30 0 0 -0.30 10.45 -0.50 27.75 -0.50 l27.70 0 0.20 6.15 0.15 6.10 0.10 -6.10 0.10 -6.15 9.75 0 c10.80 0 12.10 0.30 13.50 3 1 1.95 1 8.05 -0.05 10.05 -1.35 2.70 -2.85 2.95 -16.45 2.95 l-12.25 -0.05 -0.10 -5.35 c-0.05 -2.95 -0.15 -4.45 -0.25 -3.35 -0.30 2.60 -0.90 3.25 -2.95 3.25 l-1.70 0 0 2.75 0 2.70 -5.50 0 -5.50 0 0 -5.20 0 -5.25 -1.50 0 -1.45 0 -0.15 5.15 -0.15 5.10 -2.60 0.15 -2.65 0.15 0 -5.25 0 -5.30 -1.25 0 c-0.95 0 -1.25 0.25 -1.25 1.15 0 0.60 -0.35 1.75 -0.75 2.55 -0.55 1 -0.60 1.65 -0.25 2 0.25 0.25 0.50 1.45 0.50 2.65 l0 2.15 -2.55 0 c-1.90 0 -2.75 -0.25 -3.25 -0.85 -0.65 -0.85 -0.65 -0.85 -0.70 0 0 0.75 -0.75 0.85 -8.25 0.85 -5.05 0 -8.25 -0.20 -8.25 -0.50 0 -0.30 -0.45 -0.30 -1.30 0 -2.25 0.85 -7.30 0.60 -9.05 -0.50z m50.20 -9.10 c-0.10 -1.20 -0.20 -0.25 -0.20 2.10 0 2.35 0.10 3.30 0.20 2.15 0.10 -1.20 0.10 -3.10 0 -4.25z m-28.85 2 c0 -3.60 -0.80 -3.40 -1.10 0.20 -0.15 2.05 0.05 2.55 1 2.85 0.05 0.05 0.10 -1.35 0.10 -3.05z m-15.20 2.05 c0.15 -0.30 1.20 -0.45 2.25 -0.35 1.90 0.15 1.95 0.15 1.95 -1.45 0 -1.55 -0.10 -1.65 -1.75 -1.65 -0.95 0 -2.20 -0.30 -2.75 -0.60 -0.85 -0.55 -1.20 -0.45 -2.35 0.70 l-1.35 1.35 1.20 1.30 c1.25 1.35 2.25 1.60 2.80 0.70z m70.65 -2.05 c-0.05 -2.75 -0.25 -2.50 -0.55 0.75 -0.10 1 0 1.85 0.20 1.85 0.20 0 0.35 -1.20 0.35 -2.60z m7.80 0.10 c0 -0.60 -0.50 -1.45 -1.10 -1.85 -1.15 -0.75 -1.15 -0.75 -1.15 1.85 0 2.60 0 2.60 1.15 1.90 0.60 -0.45 1.10 -1.30 1.10 -1.90z"/>
  <path d="M258.60 179 c-1.65 -1.55 -1.55 -6.05 0.15 -7.75 1.60 -1.65 5.50 -1.75 7.45 -0.20 1.15 0.90 1.30 1.40 1.30 3.90 0 4 -1.05 5.05 -4.95 5.05 -2.20 0 -3.10 -0.25 -3.95 -1z"/>
  <path d="M253.20 165.45 c-0.70 -0.80 -0.95 -1.80 -0.95 -3.95 0 -4.15 0.90 -5 5.30 -5 4.20 0 4.95 0.75 4.95 5.10 0 4 -0.95 4.90 -5.15 4.90 -2.60 0 -3.35 -0.20 -4.15 -1.05z"/>
  <path d="M276.50 137 l0 -20.50 5.50 0 5.50 0 0 20.50 0 20.50 -5.50 0 -5.50 0 0 -20.50z"/>
  <path d="M306 156.30 c-5.75 -1.25 -10.50 -5.05 -12.90 -10.20 -1.20 -2.60 -1.30 -3.40 -1.35 -9.35 0 -6.10 0.10 -6.70 1.35 -9.25 3.70 -7.55 9.65 -11 18.85 -11 7.25 0 11.90 1.85 15.90 6.15 1.15 1.25 2.55 3.15 3.10 4.25 2.15 4.25 2.60 13.15 0.80 17.40 l-0.70 1.70 2 0 1.95 0 0 5.50 0 5.50 -13.10 -0.05 c-8.40 0 -14.15 -0.25 -15.90 -0.65z m9.90 -11.35 c2.50 -1.25 4.95 -4.25 5.40 -6.80 1.05 -5.55 -5.60 -12.15 -10.80 -10.65 -3.60 1.05 -6.55 4.05 -7.55 7.75 -0.70 2.40 0.40 5.40 2.70 7.65 3.40 3.25 6.40 3.90 10.25 2.05z"/>
  <path d="M338.25 156.35 c-0.15 -0.30 -0.20 -9.25 -0.15 -19.85 l0.15 -19.25 6.05 -0.15 6.05 -0.15 6.70 9.30 6.70 9.30 0.15 -9.30 0.10 -9.30 5.40 0.15 5.35 0.15 0 19.75 0 19.75 -5.35 0.15 -5.30 0.15 -6.75 -9.35 c-3.75 -5.10 -7.15 -9.80 -7.55 -10.35 -0.70 -1 -0.75 -0.15 -0.75 9.30 l-0.05 10.35 -5.25 0 c-3.75 0 -5.35 -0.20 -5.50 -0.65z"/>
  <path d="M379.75 156.40 c-0.15 -0.35 -0.20 -9.30 -0.15 -19.90 l0.15 -19.25 14.25 0 14.25 0 0 5.25 0 5.25 -8.60 0.15 -8.65 0.10 0 1.25 0 1.20 6.90 0.15 6.85 0.15 0.15 5.40 0.15 5.35 -7.05 0 -7 0 0 2.25 0 2.25 8.75 0 8.80 0 -0.15 5.40 -0.15 5.35 -14.15 0.15 c-11.05 0.10 -14.20 0 -14.35 -0.50z"/>
  <path d="M423.35 156.70 c-0.20 -0.20 -0.35 -6.75 -0.35 -14.55 l0 -14.15 -5.50 0 -5.50 0 0 -5.50 0 -5.50 16.65 0.10 16.60 0.15 0 5.25 0 5.25 -5.35 0.15 -5.40 0.15 -0.10 14.35 -0.15 14.35 -5.30 0.15 c-2.90 0.05 -5.40 -0.05 -5.60 -0.20z"/>
  <path d="M250.60 151 c-0.95 -0.90 -1.10 -1.60 -1.10 -4.50 0 -4.30 0.75 -5 5.30 -5 2.80 0 3.25 0.15 4.15 1.30 0.75 0.95 1.05 2.05 1.05 3.95 0 1.90 -0.30 3 -1.05 3.95 -0.90 1.15 -1.35 1.30 -4.15 1.30 -2.45 0 -3.35 -0.20 -4.20 -1z"/>
  <path d="M251.70 137.20 c-2.10 -0.50 -2.95 -2.05 -2.95 -5.55 0 -2.95 0.15 -3.35 1.45 -4.50 1.30 -1.10 1.85 -1.25 4.40 -1.05 4.15 0.30 5.15 1.40 5.15 5.65 0 4.10 -1 5.30 -4.60 5.55 -1.30 0.05 -2.90 0 -3.45 -0.10z"/>
  <path d="M251.75 121.25 c-1.05 -1.05 -1.25 -1.65 -1.25 -4.35 0.05 -4.55 1.40 -5.90 6 -5.90 2.20 0 2.80 0.25 4.05 1.45 1.25 1.30 1.45 1.85 1.45 4.30 0 2.45 -0.20 3 -1.45 4.30 -1.30 1.30 -1.80 1.45 -4.55 1.45 -2.55 0 -3.25 -0.20 -4.25 -1.25z"/>
  <path d="M257.50 108.15 c-0.40 -0.15 -1.25 -0.75 -1.85 -1.30 -0.95 -0.85 -1.15 -1.55 -1.15 -4.30 0 -2.85 0.15 -3.40 1.35 -4.65 1.20 -1.25 1.70 -1.40 4.45 -1.40 4.10 0 5.70 1.20 6.05 4.60 0.40 3.30 -0.55 5.65 -2.55 6.60 -1.65 0.80 -4.80 1 -6.30 0.45z"/>
  <path d="M277.10 99.90 c-0.35 -0.35 -0.60 -1.85 -0.60 -3.40 0 -1.55 0.25 -3.05 0.60 -3.40 0.90 -0.90 5.65 -0.75 6.60 0.20 0.90 0.90 1.10 4.75 0.30 6.25 -0.45 0.75 -1.10 0.95 -3.40 0.95 -1.60 0 -3.15 -0.25 -3.50 -0.60z"/>
  <path d="M262.70 94.15 c-1.60 -1.35 -2.20 -2.80 -2.20 -5.35 0 -3 0.80 -4.60 2.75 -5.55 3.55 -1.65 8.10 -0.60 9.25 2.25 0.95 2.25 0.40 6.80 -0.90 8.15 -1.50 1.50 -7.35 1.80 -8.90 0.50z"/>
  <path d="M302.60 91.70 c-0.90 -0.65 -1.10 -1.25 -1.10 -3.70 0 -4 0.70 -4.65 4.85 -4.40 l3.15 0.15 0 -2.60 c0 -3.45 0.75 -4.15 4.45 -4.15 1.55 0 3.10 0.25 3.45 0.60 0.45 0.45 0.60 0.15 0.60 -1.50 0 -3.05 1.65 -4.60 4.85 -4.60 1.40 0 2.90 0.35 3.55 0.80 1.05 0.70 1.10 0.70 1.10 -0.55 0 -2.15 2.05 -3.75 4.85 -3.75 1.30 0 3 0.35 3.80 0.70 0.75 0.40 1.35 0.50 1.35 0.25 0 -0.25 0.55 -1.05 1.25 -1.70 1 -1.05 1.70 -1.25 4.15 -1.25 2.15 0 3.15 0.25 3.90 0.95 1 0.90 1.05 0.90 2.15 -0.25 0.95 -1 1.65 -1.20 4.15 -1.20 2.50 0 3.15 0.20 4.20 1.25 1.15 1.15 1.35 1.20 2.35 0.50 0.65 -0.45 2.15 -0.75 3.75 -0.75 2.35 0 2.85 0.20 4.25 1.60 1.55 1.55 1.75 1.60 5.20 1.45 3.30 -0.10 3.70 -0.05 4.90 1.15 0.70 0.70 1.25 1.65 1.25 2.15 0 0.80 0.40 0.90 3.25 0.75 3.05 -0.15 3.35 -0.10 4.75 1.30 1.30 1.35 1.50 1.90 1.50 4.35 0 2.95 -0.95 5.45 -2.25 5.95 -0.45 0.15 -2.25 0.30 -3.95 0.30 -2.75 0 -3.35 -0.15 -4.50 -1.30 -0.70 -0.75 -1.30 -1.80 -1.30 -2.40 0 -0.95 -0.20 -1.05 -3 -0.90 -3.45 0.20 -5.30 -0.65 -5.80 -2.65 -0.25 -1 -0.45 -1.15 -1.20 -0.75 -0.50 0.30 -2.10 0.50 -3.50 0.50 -2.15 0 -2.80 -0.25 -4 -1.40 -1.20 -1.25 -1.50 -1.35 -2.30 -0.75 -1.80 1.30 -7.20 0.65 -8.30 -1.05 -0.30 -0.40 -0.50 -0.40 -0.75 0 -1.35 1.95 -6.95 2.40 -8.65 0.70 -0.95 -0.95 -1.05 -0.95 -1.35 -0.15 -0.75 2.15 -1.70 2.65 -5.20 2.65 -2.70 0 -3.50 -0.20 -3.90 -0.85 -0.45 -0.75 -0.50 -0.70 -0.55 0.50 0 2.25 -2 3.85 -4.85 3.85 -1.40 0 -2.90 -0.35 -3.55 -0.80 -1.10 -0.75 -1.10 -0.75 -1.10 1.50 0 1.85 -0.25 2.40 -1.35 3.30 -1.15 0.95 -1.85 1.05 -4 0.85 l-2.65 -0.30 0 2 c0 2.80 -1.70 4.45 -4.60 4.45 -1.20 0 -2.70 -0.35 -3.30 -0.80z"/>
  <path d="M283.80 89.40 c-0.45 -0.60 -0.80 -2.05 -0.80 -3.15 0 -3.30 1 -4.25 4.50 -4.25 3.50 0 4.50 0.95 4.50 4.25 0 3.30 -1 4.25 -4.50 4.25 -2.45 0 -3.05 -0.20 -3.70 -1.10z"/>
  <path d="M404.35 87.70 c-1.40 -1.40 -2.10 -3.80 -1.75 -6.10 0.20 -1.35 0.20 -1.35 -2.90 -1.35 -2.60 0 -3.35 -0.20 -4.40 -1.20 -1.05 -1 -1.30 -1.70 -1.30 -3.75 l0 -2.55 -3.65 0.15 c-3.30 0.20 -3.80 0.10 -5.05 -1 -1.05 -0.90 -1.50 -1.85 -1.80 -3.90 -0.20 -1.50 -0.40 -2.50 -0.45 -2.20 -0.10 0.90 -2.45 1.70 -5.10 1.70 -2.10 0 -2.75 -0.25 -4 -1.45 -1.25 -1.30 -1.45 -1.85 -1.45 -4.30 0 -1.55 0.25 -3.25 0.50 -3.80 1.45 -2.65 7.30 -3.25 9.75 -0.95 1 0.95 1.25 1.65 1.25 3.60 l0 2.45 1.30 -1 c1.05 -0.80 2.05 -1.05 4.55 -1.05 2.75 0 3.35 0.20 4.40 1.25 1.05 1 1.25 1.70 1.25 4.10 0 2.20 0.15 2.70 0.60 2.25 0.90 -0.90 6.95 -0.75 8.25 0.15 1.20 0.85 2.15 3.55 2.15 6.15 l0 1.60 3.15 0 c4.60 0.05 5.85 1.40 5.85 6.45 0 2.45 -0.20 3.25 -1.30 4.50 -1.20 1.45 -1.50 1.55 -4.95 1.55 -3.25 0 -3.75 -0.15 -4.90 -1.30z"/>
  <path d="M271.10 82.15 c-1.80 -0.70 -2.85 -7.25 -1.60 -9.70 1.75 -3.25 9.75 -3.25 11.50 0 0.75 1.45 0.60 6.40 -0.25 8 -0.40 0.80 -1.10 1.55 -1.50 1.75 -0.95 0.35 -7.20 0.35 -8.15 -0.05z"/>
  <path d="M292.30 80.40 c-1.15 -1.65 -1.05 -5.65 0.20 -6.90 1.25 -1.25 5.25 -1.35 6.90 -0.20 0.90 0.65 1.10 1.25 1.10 3.70 0 3.85 -0.65 4.50 -4.50 4.50 -2.45 0 -3.05 -0.20 -3.70 -1.10z"/>
  <path d="M302.35 73.10 c-0.90 -0.95 -1.20 -5.80 -0.45 -6.90 1.15 -1.70 4.70 -2.20 7.10 -0.95 2.30 1.20 2.70 6 0.70 8 -1.15 1.15 -6.30 1 -7.35 -0.15z"/>
  <path d="M282.10 71.25 c-4.05 -1.80 -4.10 -9.45 -0.05 -11.50 2.45 -1.30 6.60 -0.80 8.35 0.95 1.20 1.20 1.35 1.70 1.35 4.80 0 3.10 -0.15 3.60 -1.35 4.80 -1.65 1.65 -5.70 2.15 -8.30 0.95z"/>
  <path d="M314.10 68 c-2.35 -1 -2.90 -6.20 -0.85 -8.25 1.70 -1.70 6.20 -1.80 7.75 -0.15 1.35 1.45 1.40 5.80 0.10 7.40 -1.05 1.30 -5 1.85 -7 1z"/>
  <path d="M324.85 63.10 c-1.15 -1.25 -1.20 -6.70 -0.05 -7.80 1.75 -1.80 6.80 -1.65 8.30 0.20 1.30 1.60 1.25 6.15 -0.10 7.50 -1.40 1.40 -6.95 1.45 -8.15 0.10z"/>
  <path d="M361.55 62.55 c-1.95 -1.95 -1.95 -6.90 0 -8.95 0.80 -0.90 1.55 -1.10 4.25 -1.10 2.80 0 3.40 0.20 4.45 1.25 1.70 1.65 1.80 6.40 0.20 8.45 -0.95 1.20 -1.35 1.30 -4.50 1.30 -2.75 0 -3.65 -0.20 -4.40 -0.95z"/>
  <path d="M294.20 62.55 c-2.20 -0.95 -3.20 -2.95 -3.20 -6.35 0 -2.80 0.15 -3.40 1.45 -4.80 1.40 -1.55 1.65 -1.65 5 -1.65 3.20 0 3.65 0.15 4.90 1.35 1.15 1.20 1.40 1.90 1.55 4.85 0.20 3.20 0.10 3.50 -1.25 5.05 -1.35 1.50 -1.85 1.70 -4.45 1.85 -1.60 0.05 -3.45 -0.05 -4 -0.30z"/>
  <path d="M337.10 61 c-0.90 -0.85 -1.10 -1.60 -1.10 -4.05 0 -2.50 0.20 -3.20 1.25 -4.20 1 -1.05 1.70 -1.25 4 -1.25 2.35 0 3 0.20 4.10 1.30 1.15 1.15 1.25 1.55 1.05 4.55 -0.25 4.05 -0.90 4.65 -5.15 4.65 -2.40 0 -3.30 -0.20 -4.15 -1z"/>
  <path d="M349.60 60.85 c-0.90 -0.95 -1.10 -1.75 -1.10 -4.45 0 -3 0.15 -3.45 1.30 -4.35 0.95 -0.75 2.05 -1.05 3.75 -1.05 3.15 0 4.80 0.80 5.45 2.65 1.10 3.15 0.25 6.85 -1.80 7.80 -0.70 0.30 -2.45 0.55 -3.90 0.55 -2.10 0 -2.85 -0.25 -3.70 -1.15z"/>
  <path d="M307.65 55.45 c-2.65 -0.75 -3.65 -2.55 -3.65 -6.55 0 -3.20 0.15 -3.60 1.45 -4.95 1.35 -1.30 1.80 -1.45 4.75 -1.45 1.80 0 3.80 0.25 4.50 0.55 2.70 1.25 3.75 7.15 1.80 10.30 -1.40 2.35 -5.05 3.20 -8.85 2.10z"/>
  <path d="M320.65 50.05 c-2.20 -1.35 -2.65 -2.45 -2.65 -6.25 0 -2.90 0.15 -3.45 1.40 -4.85 1.05 -1.20 1.90 -1.60 3.70 -1.80 3.30 -0.40 5.80 0.20 7.20 1.70 1.05 1.15 1.20 1.80 1.20 5.15 0 3.60 -0.10 3.90 -1.50 5.25 -1.30 1.25 -2 1.50 -4.65 1.65 -2.45 0.10 -3.45 -0.05 -4.70 -0.85z"/>
  <path d="M364.90 49.20 c-1.45 -0.75 -2.90 -3.05 -2.90 -4.55 0 -0.65 -0.25 -0.55 -0.95 0.55 -1.45 2.15 -2.90 2.75 -6.70 2.80 -3.25 0 -3.55 -0.10 -5.15 -1.70 -1.65 -1.65 -1.70 -1.85 -1.70 -5.40 0 -5.50 1.85 -7.40 7.30 -7.40 3.75 0 5.95 1.35 6.75 4.05 l0.60 1.95 0.95 -1.55 c2.25 -3.70 9.55 -3.95 12.65 -0.50 1.50 1.75 1.70 7.45 0.30 9.70 -0.55 0.90 -1.60 1.95 -2.30 2.25 -1.80 0.85 -7.20 0.70 -8.85 -0.20z"/>
  <path d="M335.60 47.65 c-2.15 -1.05 -3.10 -2.95 -3.10 -6.40 0 -5.40 2.35 -7.50 7.90 -7.15 2.90 0.20 3.40 0.40 4.65 1.80 1.30 1.45 1.45 1.95 1.45 5.25 0 2.55 -0.25 3.95 -0.80 4.80 -1.75 2.45 -6.85 3.30 -10.10 1.70z"/>
  <path d="M50 150.05 c-5.05 -1.05 -8.30 -4.80 -8.85 -10.35 -0.60 -5.60 1.75 -10.50 6 -12.50 5.80 -2.70 15.35 -0.70 15.35 3.25 0 1.25 0 1.25 1.50 -0.50 2.30 -2.80 5.85 -4.10 10.55 -3.85 3 0.20 4.30 0.50 6.10 1.60 2.35 1.35 4.85 4.75 4.85 6.60 0 0.50 0.55 -0.20 1.20 -1.55 1.35 -3 4.05 -5.50 6.65 -6.20 2.45 -0.70 6.85 -0.70 9.30 0 2.15 0.60 5.60 3.45 6.20 5.10 0.30 0.80 0.45 0.25 0.65 -2.15 0.25 -3.10 0.30 -3.25 1.65 -3.40 1.20 -0.15 1.35 -0.40 1.35 -1.90 l0 -1.70 4 0 4 0 0 2 0 2 2 0 2 0 0 2.60 0 2.65 1.30 -1.85 c1.95 -2.75 4.70 -3.90 9.35 -3.90 6.15 0 9.55 2.05 10.75 6.55 l0.45 1.70 1 -2 c2.50 -4.75 4.80 -6 11.15 -6 4 0 5.10 0.20 6.90 1.15 2 1.10 2.10 1.20 2.10 3.50 -0.05 4.50 -3.30 6.35 -7.25 4.05 -1.70 -1 -1.80 -1.05 -3.15 -0.15 -2.90 1.90 -3.25 3.35 -1.35 5.60 1.70 2.05 3 2.25 4.70 0.80 2.05 -1.70 4 -1.55 5.95 0.45 1.20 1.20 1.60 2.10 1.60 3.40 0 1.95 -0.70 2.75 -3.50 4.25 -2.65 1.40 -9.50 1.25 -12.40 -0.20 -2.35 -1.25 -4.85 -4.35 -5.35 -6.65 -0.25 -1.05 -0.60 -1.45 -1.40 -1.45 -1 0.05 -1 0.10 -0.20 0.55 0.55 0.35 0.85 1.10 0.85 2.40 0 1.60 -0.35 2.25 -1.95 3.70 -2.65 2.40 -6.30 3.20 -11.15 2.45 -4.45 -0.65 -6.70 -2.35 -8.25 -6.15 -1.20 -2.85 -1.55 -7.90 -0.70 -10.05 0.40 -1.10 0.35 -1.15 -1.50 -1 l-1.95 0.20 0 4.35 c0 4.65 0.40 5.55 2.35 5.55 1.10 0 1.15 0.20 1.15 3.50 l0 3.45 -1.75 0.35 c-1 0.15 -2.70 0.20 -3.75 0 -5.20 -0.80 -6 -2.30 -6 -11 l0 -6.30 -1.35 0 -1.40 0 0.15 8.50 0.15 8.50 -4.05 0 -4 0 0 -6 c0 -6.60 -0.50 -8.30 -2.70 -9.50 -1.05 -0.55 -1.50 -0.55 -2.45 -0.05 -2.35 1.25 -2.85 2.95 -2.85 9.50 l0 6.05 -4 0 -4 0 -0.05 -4.60 c-0.05 -4.20 -0.10 -4.45 -0.55 -2.70 -0.35 1.25 -1.40 2.85 -2.90 4.35 -2.70 2.70 -4.50 3.20 -10.65 2.85 -4.10 -0.20 -6.25 -1.25 -8.25 -4.10 l-1.10 -1.55 0 1.50 c0 3.30 -6.45 5.50 -12.50 4.30z m11.75 -11.95 c0 -4.35 0 -4.40 -0.90 -3.25 -1.15 1.45 -3.40 1.50 -5.65 0.10 -1.55 -0.95 -1.75 -0.95 -3.15 -0.20 -2.85 1.45 -3.30 3.85 -1.15 5.90 1.55 1.50 2.95 1.70 4.40 0.60 1.50 -1.10 5.05 -0.95 5.80 0.25 0.35 0.55 0.65 1 0.65 1 0 0 0 -2 0 -4.40z m15.50 1.35 c0.75 -1.40 0.75 -1.65 0.05 -2.75 -0.45 -0.65 -1.40 -1.55 -2.10 -2.05 -1.15 -0.75 -1.45 -0.75 -2.60 -0.10 -0.70 0.40 -1.70 1.30 -2.25 2.05 -0.85 1.15 -0.95 1.55 -0.45 2.65 0.30 0.70 1.30 1.70 2.15 2.20 1.45 0.90 1.75 0.90 3 0.25 0.80 -0.40 1.80 -1.40 2.20 -2.25z m60.45 2.30 c0.90 -0.70 0.75 -0.75 -2 -0.75 -2.80 0.05 -2.90 0.05 -1.70 0.75 1.60 0.90 2.50 0.90 3.70 0z"/>
  <path d="M32.90 135.90 c-0.20 -8.90 -0.10 -13.85 0.20 -14.25 0.30 -0.40 1.75 -0.65 3.70 -0.65 2.50 0 3.25 0.20 3.60 0.90 0.30 0.50 0.35 6.55 0.20 14.25 l-0.25 13.35 -3.60 0 -3.60 0 -0.25 -13.60z"/>
  <path d="M90.70 110.30 c-4.50 -1.05 -9.70 -3.35 -13.45 -6 -2.80 -2.05 -3.25 -2.55 -3.25 -3.90 0 -0.85 0.40 -2.05 0.90 -2.60 0.85 -1.05 0.85 -1.05 -0.20 -0.15 -0.55 0.45 -1.75 0.85 -2.60 0.85 -1.30 0 -1.90 -0.40 -3.35 -2.35 -5 -6.75 -7.25 -14.20 -7.25 -23.90 0 -7.70 1 -12.35 3.80 -18.10 1.80 -3.55 1.85 -3.65 3.70 -3.65 l1.90 0 -0.25 -2.10 c-0.20 -1.95 -0.05 -2.30 1.50 -3.85 1.55 -1.45 2.05 -1.65 3.95 -1.50 l2.15 0.20 -0.15 -1.85 c-0.20 -1.80 -0.15 -1.85 3.25 -3.55 6.70 -3.40 9.95 -4.10 18.65 -4.10 6.50 0.05 8.40 0.25 11.75 1.15 4.80 1.40 9.50 3.80 13.40 6.90 2.70 2.15 2.85 2.40 2.85 4.45 l0 2.20 2.10 0.15 2.15 0.15 2.25 4.50 c3.45 6.80 4.25 10.60 4.20 19.25 0 10.25 -1.90 16.30 -7.15 23.45 -3.75 5 -4.60 5.70 -7 5.45 l-2.05 -0.20 0 1.85 c0 1.75 -0.15 1.90 -3.35 3.60 -6.10 3.15 -9.50 3.95 -17.90 4.15 -5.20 0.15 -8.45 -0.05 -10.55 -0.50z m18.80 -9.55 c2.05 -0.75 4.40 -1.80 5.15 -2.35 1 -0.75 2 -0.95 3.60 -0.80 l2.25 0.15 0 -1.80 c0 -1.40 0.40 -2.30 1.80 -3.75 2.45 -2.65 5.40 -7.80 6.75 -11.70 1.65 -4.70 1.65 -11.45 0 -16.40 -0.65 -2 -1.30 -3.70 -1.50 -3.80 -0.15 -0.10 -0.70 0.10 -1.25 0.45 -0.85 0.65 -0.85 0.85 -0.10 3.85 0.95 3.75 1.05 10.70 0.25 14.50 -0.30 1.45 -1.10 3.70 -1.75 5.05 -1.10 2.05 -1.40 2.35 -2.85 2.35 -1.60 0 -1.60 0 -1.45 2.15 0.15 1.95 0 2.30 -1.80 3.95 -5 4.50 -10.50 6.40 -18.60 6.40 -2.90 0 -6.25 -0.25 -7.45 -0.55 -6.70 -1.50 -13.30 -7 -16.70 -13.85 l-2.10 -4.25 -0.20 -6.75 c-0.15 -7.55 0.20 -9.65 2.80 -14.65 4.30 -8.30 13.05 -13.45 22.90 -13.45 6 0 9.55 0.75 14.15 3 4.05 2 4.10 2.05 4.10 3.90 0 1.05 -0.30 2.20 -0.60 2.60 -0.70 0.75 -0.75 0.75 5 -2.75 1.70 -1.05 3.10 -1.90 3.10 -1.95 0 -0.05 -1 0 -2.25 0.10 -1.95 0.20 -2.50 0 -4.30 -1.55 -1.10 -1 -3.65 -2.55 -5.60 -3.55 -8.95 -4.35 -16.30 -4.35 -25.15 -0.05 -2 0.95 -4.30 1.75 -5.15 1.75 -1.30 0 -1.55 0.20 -1.55 1.20 0 1.75 -3.20 4.80 -5.05 4.80 -1.35 0 -1.45 0.15 -1.45 1.95 0 1.15 -0.60 3.10 -1.50 4.85 -3.40 6.75 -3.95 14.15 -1.50 21.15 0.80 2.35 2.50 5.75 3.80 7.65 1.85 2.70 2.25 3.75 2.10 5.05 -0.15 1.60 -0.15 1.60 1.65 1.45 1.50 -0.15 2.25 0.15 4.25 1.70 2.70 2.05 6.55 3.90 10.40 5 4 1.10 11.20 0.65 15.80 -1.05z m-2.95 -11.60 c1.30 -0.60 3.25 -1.85 4.40 -2.90 1.80 -1.65 2.30 -1.85 4.25 -1.70 2 0.20 2.15 0.10 1.50 -0.60 -1 -1.15 -0.85 -2.70 0.60 -6.40 1.85 -4.55 1.50 -7.80 -1.30 -13.40 -1.60 -3.15 -2.05 -4.55 -1.90 -5.90 0.15 -1.15 0.05 -1.60 -0.30 -1.25 -0.90 0.90 -3.15 0.50 -6.60 -1.10 -2.95 -1.40 -4 -1.65 -7.20 -1.65 -3.25 0.05 -4.20 0.25 -7.15 1.75 -7.60 3.75 -12.25 12.20 -10.65 19.20 1.55 6.50 5.80 11.45 12.25 14.15 3.45 1.45 8.50 1.40 12.10 -0.20z"/>
  <path d="M95.60 87 c-6.40 -1.35 -10.60 -7.20 -10.60 -14.75 0 -6.35 2.60 -10.95 7.60 -13.45 2.25 -1.15 3.25 -1.30 7.35 -1.30 3.95 0 5.25 0.20 7.30 1.20 2.90 1.30 5.45 4.05 6.90 7.20 1.35 3.20 1.05 10.85 -0.60 14.05 -1.40 2.70 -3.65 4.85 -6.40 6.10 -2.40 1.10 -8.45 1.60 -11.55 0.95z m7.40 -9.45 c1.65 -1.20 3.50 -3.95 3.50 -5.25 0 -2.60 -3.90 -6.30 -6.60 -6.30 -2.95 0 -6.90 4.65 -6.10 7.15 0.60 1.90 2.20 3.85 4.10 4.85 2 1 3.15 0.90 5.10 -0.45z"/>
 </g>
 <g fill="#174195">
  <path d="M336 251.75 c-27.30 -3.60 -50.65 -15.10 -69.60 -34.35 -28.25 -28.65 -39.85 -70.20 -30.60 -109.40 6.50 -27.70 22.80 -52 45.90 -68.55 12.70 -9.10 28.10 -16.05 42.55 -19.20 12.35 -2.65 28.20 -3.50 39.75 -2.05 40.35 5.10 73.90 28.85 91.75 65 16 32.40 16.20 70.15 0.55 102.60 -14.40 29.85 -40.10 52 -71.55 61.65 -5.45 1.65 -10.05 2.70 -17 3.90 -6.40 1.05 -25 1.30 -31.75 0.40z m-12.25 -26.05 c2.20 -2.35 1.40 -4.75 -2 -6.25 -3.55 -1.55 -3.25 -3.70 0.40 -3.10 1.60 0.25 1.85 0.15 1.85 -0.75 0 -1.80 -4.15 -2.20 -5.90 -0.60 -1.10 1.05 -1.40 2.65 -0.80 4.25 0.20 0.45 1.45 1.35 2.80 2.05 2.55 1.30 2.95 2.35 1.30 3.40 -0.65 0.40 -1.25 0.30 -2.40 -0.35 -2.40 -1.45 -3.65 0.30 -1.40 1.85 1.80 1.30 4.75 1.05 6.15 -0.50z m8.80 -1.50 c-0.10 -2.35 0.10 -2.95 2.15 -6.15 1.25 -1.95 2.30 -3.65 2.30 -3.80 0 -0.15 -0.55 -0.25 -1.25 -0.25 -0.95 0 -1.60 0.55 -2.65 2.25 -0.75 1.25 -1.45 2.25 -1.60 2.25 -0.15 0 -0.85 -1.05 -1.60 -2.25 -1.05 -1.70 -1.65 -2.25 -2.65 -2.25 -0.70 0 -1.25 0.10 -1.25 0.25 0 0.15 1.05 1.80 2.30 3.70 2 3 2.25 3.75 2.20 5.85 -0.10 3.35 -0.15 3.30 1.10 3.10 1 -0.15 1.10 -0.40 0.95 -2.70z m12.80 2.05 c2.55 -1.80 1.75 -5.30 -1.55 -6.80 -3.60 -1.55 -3.35 -3.70 0.35 -3.10 1.40 0.20 1.85 0.10 1.85 -0.45 0 -1.20 -1.10 -1.90 -3.10 -1.90 -3.05 0 -4.65 2.40 -3.60 5.25 0.20 0.45 1.45 1.35 2.80 2.05 2.55 1.30 2.95 2.35 1.30 3.40 -0.65 0.40 -1.25 0.30 -2.40 -0.35 -1.55 -0.95 -2.50 -0.80 -2.50 0.40 0 1.95 4.75 3 6.85 1.50z m8.85 -4.75 l0.05 -5.25 1.80 0.15 c1.45 0.15 1.85 -0.05 2.10 -0.85 0.10 -0.55 0.10 -1.10 -0.05 -1.25 -0.15 -0.15 -2.50 -0.30 -5.20 -0.30 -4.85 0 -4.95 0 -4.80 1.15 0.10 0.90 0.50 1.15 2.05 1.25 l1.85 0.15 0 5.25 c0 5.10 0.05 5.25 1.10 5.10 1 -0.15 1.05 -0.40 1.10 -5.40z m14.55 5 c0.70 -1.15 -0.90 -2.10 -3.20 -1.90 -2.25 0.15 -2.30 0.10 -2.45 -1.45 -0.15 -1.55 -0.10 -1.60 2 -1.75 1.80 -0.10 2.20 -0.35 2.30 -1.25 0.15 -1.05 -0.05 -1.15 -2.10 -1.15 -2.10 0 -2.30 -0.10 -2.30 -1.25 0 -1.20 0.15 -1.25 2.70 -1.25 2.05 0 2.75 -0.20 3 -0.85 0.55 -1.35 -0.35 -1.70 -4.25 -1.55 l-3.70 0.15 -0.15 6.40 -0.15 6.35 4 0 c2.25 0 4.15 -0.25 4.30 -0.50z m4.80 -3.95 c-0.15 -4.55 0.20 -4.85 2.05 -2.05 1.70 2.50 2.60 2.45 4.50 -0.25 l1.65 -2.35 0.15 4.60 c0.15 4.25 0.20 4.55 1.15 4.40 0.95 -0.15 1 -0.55 1.05 -6.40 l0.10 -6.25 -1.60 -0.15 c-1.35 -0.15 -1.65 0.05 -2.55 1.80 -0.95 1.85 -2.40 3.45 -2.75 3.05 -0.10 -0.10 -0.75 -1.25 -1.50 -2.55 -1.15 -2 -1.65 -2.40 -2.85 -2.40 l-1.45 0 0 6.55 c0 6.40 0 6.50 1.10 6.35 1 -0.15 1.05 -0.40 0.95 -4.35z m-86.05 -21.15 l0 -4.65 1.50 2.40 c2.05 3.20 2.85 3.15 5.05 -0.40 l1.20 -2 0.15 4.65 c0.15 4.50 0.15 4.60 1.35 4.60 l1.25 0 0 -6.50 0 -6.50 -1.60 0 c-1.45 0 -1.80 0.30 -3.05 2.50 -0.80 1.40 -1.60 2.50 -1.85 2.50 -0.20 0 -1.10 -1.10 -1.95 -2.50 -1.30 -2.10 -1.80 -2.50 -3.05 -2.50 l-1.50 0 0 6.50 0 6.50 1.25 0 c1.25 0 1.25 -0.05 1.25 -4.60z m14.60 3.25 c0.55 -1.15 0.95 -1.30 3.15 -1.30 2.20 0 2.60 0.15 3.15 1.30 0.45 0.90 1.05 1.35 1.90 1.35 0.65 0 1.20 -0.05 1.20 -0.10 0 -0.10 -1.10 -2.95 -2.50 -6.40 -2.25 -5.80 -2.55 -6.25 -3.75 -6.25 -1.25 0 -1.50 0.45 -3.55 5.75 -1.25 3.15 -2.40 6.05 -2.55 6.40 -0.15 0.40 0.20 0.60 1 0.60 0.90 0 1.50 -0.40 1.95 -1.35z m14.50 -3.20 l0.15 -4.55 3.20 4.55 c2.50 3.55 3.45 4.55 4.35 4.55 1.20 0 1.20 -0.05 1.20 -6 0 -3.30 0.05 -6.15 0.15 -6.35 0.05 -0.25 -0.40 -0.45 -1 -0.55 -1.05 -0.15 -1.10 0 -1.25 4.25 l-0.15 4.40 -3.15 -4.35 c-2.75 -3.80 -3.35 -4.40 -4.65 -4.40 l-1.45 0 0 6.50 0 6.50 1.25 0 c1.20 0 1.20 -0.10 1.35 -4.55z m13.50 3.20 c0.55 -1.15 0.95 -1.30 3.15 -1.30 2.20 0 2.60 0.15 3.15 1.30 0.45 0.90 1.05 1.35 1.90 1.35 0.65 0 1.20 -0.05 1.20 -0.10 0 -0.10 -1.10 -2.95 -2.50 -6.40 -2.25 -5.80 -2.55 -6.25 -3.75 -6.25 -1.25 0 -1.50 0.45 -3.55 5.75 -1.25 3.15 -2.40 6.05 -2.55 6.40 -0.15 0.40 0.20 0.60 1 0.60 0.90 0 1.50 -0.40 1.95 -1.35z m20.95 -0.05 c1.30 -1.15 1.60 -1.85 1.65 -3.60 l0.05 -2.15 -2.55 -0.15 c-1.80 -0.15 -2.80 0.05 -3.20 0.55 -0.85 1.05 -0.15 1.75 1.80 1.75 2.05 0 2.30 1.10 0.45 2.30 -0.85 0.55 -1.75 0.70 -3 0.50 -3.40 -0.65 -4.40 -4.70 -1.80 -7.35 1.65 -1.60 3.25 -1.85 4.95 -0.65 1.25 0.85 2.10 0.55 2.10 -0.75 0 -2 -5.10 -2.75 -7.80 -1.10 -1.70 1.05 -3.20 3.75 -3.20 5.80 0 5.10 6.75 8.25 10.55 4.85z m12.85 0.30 c-0.15 -1.05 -0.45 -1.15 -2.80 -1.15 l-2.60 0 0 -1.75 c0 -1.75 0.05 -1.75 2.10 -1.75 1.80 0 2.15 -0.15 2.15 -1 0 -0.80 -0.40 -1.05 -2.10 -1.15 -2 -0.15 -2.15 -0.25 -2.15 -1.55 0 -1.40 0.05 -1.45 2.65 -1.35 2.35 0.05 2.60 -0.05 2.75 -1.05 0.15 -1.10 0.05 -1.15 -3.85 -1.15 l-4.05 0 0 6.50 0 6.50 4.05 0 c3.90 0 4 -0.05 3.85 -1.10z m5.20 -3.50 l0.15 -4.65 1.20 2.10 c2 3.50 3 3.40 5.65 -0.40 0.85 -1.15 0.85 -1.10 0.85 3.20 0.05 4.30 0.05 4.35 1.30 4.35 l1.25 0 0 -6.55 0 -6.50 -1.60 0.15 c-1.30 0.10 -1.85 0.60 -2.90 2.35 -0.70 1.25 -1.50 2.30 -1.80 2.40 -0.25 0.10 -1.15 -0.95 -1.95 -2.35 -1.30 -2.20 -1.65 -2.50 -3.10 -2.50 l-1.65 0 0 6.50 0 6.50 1.25 0 c1.20 0 1.20 -0.10 1.35 -4.60z m21.80 3.50 c-0.15 -1.05 -0.40 -1.15 -2.75 -1.05 l-2.65 0.10 0 -1.85 c0 -1.85 0 -1.85 2.10 -1.85 1.85 0 2.15 -0.15 2.30 -1.10 0.15 -1.05 -0.05 -1.15 -2.10 -1.15 -2.15 0 -2.30 -0.10 -2.30 -1.35 0 -1.35 0.10 -1.40 2.60 -1.40 2.35 0 2.65 -0.10 2.80 -1.10 0.15 -1.10 0.05 -1.15 -3.85 -1.15 l-4.05 0 0 6.50 0 6.50 4.05 0 c3.90 0 4 -0.05 3.85 -1.10z m5.20 -3.50 l0.15 -4.65 3.25 4.60 c2.75 3.85 3.45 4.60 4.65 4.65 l1.35 0 0 -6.50 0 -6.50 -1.25 0 c-1.25 0 -1.25 0.05 -1.30 4.40 0 4.20 -0.05 4.30 -0.85 3.15 -4.10 -5.95 -5.40 -7.30 -6.85 -7.30 l-1.50 0 -0.15 6.40 -0.15 6.35 1.25 0 c1.25 0 1.25 -0.05 1.40 -4.60z m18.15 -0.90 l0 -5.25 1.55 0.15 c1.60 0.15 3.05 -0.95 2.45 -1.90 -0.35 -0.55 -9.85 -0.75 -10.40 -0.20 -0.15 0.20 -0.10 0.75 0.20 1.25 0.35 0.70 0.95 0.90 2.10 0.80 l1.60 -0.10 0.15 5.40 c0.15 5.25 0.15 5.40 1.25 5.25 1.05 -0.15 1.10 -0.35 1.10 -5.40z m-98.40 -15.65 c0.65 -0.65 0.70 -0.95 0.20 -1.55 -0.60 -0.70 -0.80 -0.70 -1.70 -0.05 -1.55 1.10 -3.05 0.90 -4.80 -0.55 -1.25 -1 -1.55 -1.70 -1.55 -3.20 0 -1.50 0.30 -2.20 1.55 -3.20 1.75 -1.50 2.65 -1.60 4.65 -0.55 0.95 0.50 1.65 0.60 1.95 0.30 0.75 -0.75 0.05 -2 -1.40 -2.55 -7.55 -2.90 -12.90 7.30 -6.10 11.55 1.90 1.20 5.95 1.10 7.20 -0.20z m11.05 0.05 c-0.15 -1.05 -0.40 -1.15 -2.75 -1 l-2.65 0.15 0 -1.95 0 -1.95 2.15 0.05 c1.80 0.05 2.10 -0.10 2.25 -1.05 0.15 -1.05 -0.05 -1.15 -2.10 -1.15 -2.20 0 -2.30 -0.05 -2.30 -1.45 0 -1.40 0.05 -1.45 2.65 -1.35 2.35 0.05 2.60 -0.05 2.75 -1.05 0.15 -1.10 0.05 -1.15 -3.85 -1.15 l-4.05 0 0 6.50 0 6.50 4.05 0 c3.90 0 4 -0.05 3.85 -1.10z m5.60 -1.40 c0 -1.85 0.20 -2.50 0.70 -2.50 0.40 0 1.35 1.15 2.10 2.50 1.05 1.90 1.65 2.50 2.55 2.50 1.45 0 1.45 -0.60 -0.10 -2.90 l-1.25 -1.80 1.25 -1.05 c1.25 -1.05 1.40 -1.55 1.30 -3.85 -0.10 -2.50 -1.60 -3.40 -5.55 -3.40 l-3.50 0 0 6.50 0 6.50 1.25 0 c1.15 0 1.25 -0.15 1.25 -2.50z m14.80 -3 l0.10 -5.25 1.70 0.15 c1.75 0.15 2.80 -0.85 2.10 -1.95 -0.30 -0.50 -9.85 -0.65 -10.35 -0.15 -0.80 0.80 0.75 2.20 2.40 2.20 l1.75 0 0 5.30 c0 5.20 0 5.25 1.15 5.10 1.05 -0.15 1.10 -0.35 1.15 -5.40z m8.30 -1 c0 -5.95 -0.10 -6.25 -1.05 -6.40 -1 -0.15 -1.05 0.05 -1.05 6.40 0 6.35 0.05 6.55 1.05 6.40 0.95 -0.15 1.05 -0.45 1.05 -6.40z m5.90 3.55 l0 -3 1.65 0.30 c1.15 0.15 1.85 0 2.30 -0.55 0.95 -1.15 0.25 -1.80 -2 -1.80 -1.80 0 -1.95 -0.10 -1.95 -1.40 0 -1.35 0.10 -1.40 2.65 -1.35 2.25 0 2.60 -0.15 2.60 -1 0 -0.90 -0.40 -1 -3.85 -1.15 l-3.90 -0.15 0 6.55 0 6.50 1.25 0 c1.20 0 1.25 -0.15 1.25 -2.95z m10.15 2.35 c-0.10 -0.25 -0.15 -3.10 -0.15 -6.40 0 -5.65 -0.05 -6 -1 -6 -0.95 0 -1 0.35 -1 6.55 0 6.50 0 6.50 1.15 6.35 0.60 -0.10 1.05 -0.30 1 -0.50z m11.25 -0.50 c-0.15 -1.05 -0.45 -1.15 -2.75 -1.15 l-2.65 0 0 -1.75 c0 -1.75 0.05 -1.75 2.10 -1.75 1.85 0 2.15 -0.15 2.30 -1.10 0.15 -1.05 -0.05 -1.15 -2.10 -1.15 -2.20 0 -2.30 -0.05 -2.30 -1.50 0 -1.45 0 -1.45 2.65 -1.35 2.35 0.10 2.60 0 2.75 -1 0.15 -1.10 0.05 -1.15 -3.85 -1.15 l-4.05 0 0 6.50 0 6.50 4.05 0 c3.90 0 4 -0.05 3.85 -1.10z m9.85 0.40 c2.05 -0.85 3.25 -3 3.25 -5.80 0 -4.45 -2.55 -6.65 -7.40 -6.40 l-2.85 0.15 -0.15 6.40 -0.15 6.35 2.80 0 c1.55 0 3.55 -0.30 4.50 -0.70z m-127.75 -7.90 c1.40 -1.55 1.30 -3.60 -0.30 -4.85 -1.75 -1.35 -2.95 -1.30 -4.45 0.20 -1.55 1.50 -1.60 3.40 -0.15 4.75 1.45 1.30 3.60 1.30 4.90 -0.10z m-5 -13.40 c1.20 -1.20 1.30 -3.35 0.20 -4.90 -1 -1.45 -4.15 -1.55 -5.45 -0.10 -1.15 1.30 -1.15 3.70 0 5 1.20 1.30 3.95 1.30 5.25 0z m26 -27 l0 -19 -4 0 -4 0 0 19 0 19 4 0 4 0 0 -19z m47.50 14.50 l0 -4 -3 0 -2.95 0 1.45 -2.35 c2.85 -4.55 3 -11.70 0.45 -16.75 -4.10 -8.10 -14.10 -12.25 -23 -9.60 -5.55 1.65 -9.20 4.75 -11.85 10.20 -1.20 2.45 -1.35 3.30 -1.30 7.75 0 4.30 0.20 5.40 1.30 7.85 1.55 3.30 4.85 6.85 8 8.45 3.70 1.95 6.95 2.35 19.30 2.40 l11.60 0.05 0 -4z m14 -8 c0 -6.60 0.15 -12 0.40 -12 0.20 0 1.25 1.30 2.40 2.90 1.10 1.55 5.05 6.95 8.70 12 l6.60 9.15 3.85 -0.15 3.80 -0.15 0 -18.25 0 -18.25 -3.85 -0.15 -3.90 -0.15 -0.10 11.35 -0.15 11.40 -8.20 -11.40 -8.20 -11.35 -4.55 0.15 -4.55 0.15 -0.15 17.75 c-0.05 9.75 0 18.05 0.15 18.35 0.15 0.45 1.40 0.65 4 0.65 l3.75 0 0 -12z m59.40 7.90 l0.15 -3.90 -8.80 0 -8.75 0 0 -3.75 0 -3.75 7 0 7.05 0 -0.15 -3.85 -0.15 -3.90 -6.85 -0.15 -6.90 -0.15 0 -2.70 0 -2.75 8.65 -0.10 8.60 -0.15 0 -3.75 0 -3.75 -12.75 0 -12.75 0 -0.15 17.75 c-0.05 9.75 0 18.05 0.15 18.40 0.15 0.50 3 0.60 12.85 0.50 l12.65 -0.15 0.15 -3.85z m26 -10.50 l0.10 -14.35 5.40 -0.15 5.35 -0.15 0 -3.75 0 -3.75 -15.10 -0.15 -15.15 -0.10 0 4 0 4 5.65 0 5.60 0 -0.15 13.85 c-0.05 7.60 0 14.15 0.15 14.50 0.15 0.50 1.20 0.65 4.10 0.55 l3.90 -0.15 0.15 -14.35z m-175.45 8.30 c1.35 -1.70 1.35 -3.20 0 -4.90 -1.20 -1.50 -3.60 -1.75 -5.35 -0.50 -1.55 1.05 -1.55 4.25 0 5.70 1.60 1.45 4.05 1.35 5.35 -0.30z m-0.20 -14.75 c1.25 -1.25 1.25 -4.15 -0.05 -5.45 -2.65 -2.65 -6.90 -1 -6.90 2.65 0 3.80 4.15 5.50 6.95 2.80z m1.80 -14.90 c0.85 -0.90 1.45 -2 1.45 -2.80 0 -1.60 -2.50 -4.25 -4 -4.25 -3.90 0 -5.95 4.55 -3.25 7.25 1.70 1.75 3.90 1.65 5.80 -0.20z m3.25 -13.35 c4.20 -2 2.70 -8.20 -2 -8.20 -3.60 0 -5.75 5 -3.15 7.35 1.95 1.80 2.85 1.95 5.15 0.85z m20.20 -8.25 c1.30 -2.35 -1.25 -5 -3.45 -3.60 -1 0.65 -1.30 3 -0.50 3.95 0.90 1.10 3.30 0.90 3.95 -0.35z m-12.50 -5.70 c2.20 -2 1.60 -6.15 -1.05 -7.50 -1.75 -0.95 -2.15 -0.95 -4.20 0.05 -3.10 1.45 -3.50 5.10 -0.85 7.55 1.10 1 1.70 1.20 3.25 1 1.05 -0.15 2.35 -0.65 2.85 -1.10z m37.75 -2.50 c1.45 -1.40 1.55 -2.10 0.45 -3.65 -0.90 -1.30 -3.25 -1.50 -4.40 -0.30 -1.20 1.15 -1 3.50 0.30 4.40 1.55 1.10 2.25 1 3.65 -0.45z m-17.90 -2.05 c0.75 -1.20 0.75 -1.45 0.10 -2.65 -0.55 -1 -1.10 -1.30 -2.45 -1.30 -1.35 0 -1.90 0.30 -2.45 1.30 -0.65 1.20 -0.65 1.45 0.10 2.65 0.60 0.90 1.30 1.30 2.35 1.30 1.05 0 1.75 -0.40 2.35 -1.30z m122.85 -1.75 c1.90 -2.25 1.60 -5.55 -0.65 -7.30 -1.15 -0.90 -4.35 -0.80 -5.80 0.15 -1.55 1 -2.45 3.65 -1.80 5.35 0.85 2.20 2.55 3.35 4.85 3.35 1.75 0 2.35 -0.25 3.40 -1.55z m-97 -2 c2.35 -1.85 1.20 -5.45 -1.75 -5.45 -2 0 -3.05 1.25 -2.85 3.45 0.10 1.30 0.45 1.95 1.40 2.40 1.65 0.85 1.65 0.80 3.20 -0.40z m69.05 -0.25 c1.05 -0.40 2.25 -2.80 2.25 -4.45 0 -1.90 -2.50 -4.25 -4.50 -4.25 -2.25 0 -4.50 2.35 -4.50 4.65 0 3.15 3.50 5.30 6.75 4.05z m-107 -3 c1.05 -0.45 2.25 -2.80 2.25 -4.55 0 -2.80 -3.05 -5.10 -5.80 -4.45 -1.95 0.50 -3.70 2.50 -3.70 4.30 0 1.75 1.15 4.30 2.10 4.65 0.95 0.40 4.20 0.40 5.15 0.05z m20.45 -1.50 c1.25 -1.25 1 -3.55 -0.50 -4.50 -2.75 -1.85 -5.85 1.25 -4 4 0.95 1.50 3.25 1.75 4.50 0.50z m27.05 -0.45 c0.70 -0.65 1.25 -1.75 1.25 -2.45 0 -1.40 -2.10 -3.30 -3.60 -3.30 -1.25 0 -3.40 2.20 -3.40 3.50 0 1.35 2.15 3.50 3.50 3.50 0.60 0 1.60 -0.55 2.25 -1.25z m50.80 -0.70 c1.85 -1.90 1.95 -4.10 0.20 -5.80 -2.65 -2.70 -7.25 -0.80 -7.25 3 0 3.95 4.20 5.60 7.05 2.80z m26.80 -0.15 c1.50 -1.25 2.15 -3.20 1.60 -5.05 -0.60 -2.25 -2.10 -3.35 -4.50 -3.35 -5.05 0 -6.25 7.30 -1.45 9.15 1 0.40 3.50 0 4.35 -0.75z m-67.60 -2.40 c1.10 -1.20 1.20 -3.75 0.20 -4.75 -0.40 -0.40 -1.45 -0.85 -2.30 -1.05 -1.30 -0.25 -1.85 -0.05 -2.85 0.95 -1.50 1.50 -1.65 2.85 -0.50 4.60 1.05 1.60 4.10 1.75 5.45 0.25z m29.90 0.45 c2.60 -1.20 3 -4.35 0.90 -6.50 -1.95 -1.90 -3.70 -1.90 -5.65 0.05 -1.25 1.30 -1.45 1.80 -1.20 3.15 0.35 1.80 2.35 3.85 3.80 3.85 0.55 0 1.50 -0.25 2.15 -0.55z m-20.50 -1.50 c1.50 -0.80 1.85 -1.40 1.85 -3.30 0 -3.35 -3.85 -4.80 -6.25 -2.40 -1.45 1.40 -1.55 2.25 -0.50 4.25 1.05 2 2.80 2.55 4.90 1.45z m11.10 -0.70 c2.45 -2.40 0.75 -6.75 -2.65 -6.75 -1.65 0 -4.10 2.10 -4.10 3.55 0 3.75 4.25 5.75 6.75 3.20z m-47.95 -1.65 c1.95 -1.30 1.75 -4.30 -0.35 -5.40 -2.25 -1.15 -4.45 0.25 -4.45 2.75 0 2.30 2.90 3.95 4.80 2.65z m84.95 -1.90 c2.70 -2.95 0.85 -7.70 -2.95 -7.70 -2.65 0 -4.55 1.85 -4.55 4.50 0 1.70 0.30 2.35 1.40 3.30 1.95 1.65 4.50 1.60 6.10 -0.10z m-103.75 -1.50 c2.50 -2.50 1.05 -7.15 -2.55 -7.95 -1.95 -0.45 -4.40 0.95 -5.25 3.05 -0.60 1.50 -0.60 1.95 0 3.45 1.40 3.25 5.25 4 7.80 1.45z m30.65 -3.30 c1.15 -1.35 1.10 -2.95 -0.15 -4.30 -1.35 -1.45 -3.25 -1.40 -4.75 0.15 -1.40 1.35 -1.45 1.65 -0.75 3.50 0.90 2.35 3.85 2.70 5.65 0.65z m60.50 0 c1.65 -0.85 2.30 -1.95 2.35 -3.95 0 -3.10 -3.25 -5.15 -5.95 -3.70 -2.95 1.50 -3.40 4.45 -1.10 6.80 1.55 1.55 2.95 1.80 4.70 0.85z m-48.65 -3.90 c1.85 -1.85 0.85 -5.05 -1.75 -5.70 -1.25 -0.30 -3.20 0.35 -3.85 1.40 -0.65 1 -0.40 3.45 0.45 4.40 1.10 1.20 3.85 1.20 5.15 -0.10z m37.45 -0.80 c1.40 -1.80 1.35 -3.95 -0.20 -5.45 -3.05 -3.10 -8.20 0.05 -6.70 4.15 0.70 1.85 1.80 2.60 4 2.60 1.45 0 2.10 -0.30 2.90 -1.30z m-67.75 -1.25 c1.20 -1.35 1.35 -1.90 1.15 -3.60 -0.40 -2.85 -2.15 -4.50 -4.90 -4.50 -4.10 0 -6.40 4.65 -3.90 7.85 2.15 2.75 5.25 2.85 7.65 0.25z m42.45 0.40 c0.50 -0.30 1 -1.45 1.15 -2.45 0.25 -1.50 0.10 -2.05 -0.95 -3.10 -1.65 -1.65 -3.55 -1.65 -5.10 -0.05 -1.60 1.55 -1.65 3.85 -0.15 5.25 1.25 1.15 3.75 1.35 5.05 0.35z m12.05 0.10 c0.70 -0.35 1.45 -1.25 1.75 -2 1.35 -3.95 -2.85 -7 -6.15 -4.40 -1.70 1.35 -1.80 4.10 -0.20 5.80 1.20 1.25 2.70 1.45 4.60 0.60z m-41.80 -6.45 c0.40 0 2.10 -3.40 2.10 -4.15 0 -1.65 -1.50 -4.20 -2.80 -4.80 -3.75 -1.70 -7.70 0.55 -7.70 4.35 0 3.60 3.25 6 6.75 5 0.80 -0.20 1.55 -0.40 1.65 -0.40z m14.70 -5.80 c1.10 -1.10 1.40 -1.80 1.40 -3.55 0 -1.20 -0.35 -2.75 -0.80 -3.40 -0.95 -1.50 -3.70 -2.45 -5.70 -2 -2.05 0.45 -4 2.90 -4 5.05 0 2.30 0.70 3.50 2.65 4.75 2.05 1.30 4.50 0.95 6.45 -0.85z m43.65 0.20 c0.70 -0.30 1.75 -1.35 2.30 -2.25 2.95 -4.75 -2.05 -10.60 -7.20 -8.50 -2.05 0.90 -3.85 3.40 -3.85 5.50 0 4.30 4.65 7.15 8.75 5.25z m-30.55 -1.60 c2.25 -0.95 3.30 -2.60 3.30 -5.10 0 -5.60 -7.20 -7.70 -10.05 -3 -1.80 2.95 -0.80 6.50 2.15 7.95 2.05 1 2.50 1.05 4.60 0.15z m15.70 -0.50 c1.45 -0.80 3.10 -3.20 3.10 -4.60 0 -2.05 -1.10 -4.20 -2.75 -5.20 -1.95 -1.20 -3.75 -1.30 -5.75 -0.25 -2.10 1.05 -3 2.65 -3 5.15 0 1.85 0.30 2.50 1.70 3.90 1.35 1.35 2.10 1.70 3.65 1.70 1.05 -0.05 2.40 -0.30 3.05 -0.70z"/>
  <path d="M303.55 200.65 c0 -0.25 0.40 -1.30 0.90 -2.35 l0.85 -2 0.85 2.10 c0.45 1.15 0.85 2.25 0.85 2.35 0 0.15 -0.80 0.25 -1.75 0.25 -0.95 0 -1.75 -0.15 -1.70 -0.35z"/>
  <path d="M331.55 200.65 c0 -0.25 0.40 -1.30 0.90 -2.35 l0.85 -2 0.85 2.10 c0.45 1.15 0.85 2.25 0.85 2.35 0 0.15 -0.80 0.25 -1.75 0.25 -0.95 0 -1.75 -0.15 -1.70 -0.35z"/>
  <path d="M332.50 177 c0 -1.80 1 -2.35 2.95 -1.70 0.95 0.35 1.30 0.85 1.30 1.70 0 1.10 -0.25 1.25 -2.10 1.40 -2.10 0.15 -2.15 0.10 -2.15 -1.40z"/>
  <path d="M388.20 183.35 c-0.15 -0.40 -0.20 -2.35 -0.10 -4.40 l0.15 -3.70 1.50 0.15 c2.15 0.25 3.60 1.35 4 3 0.35 1.75 -0.40 3.90 -1.60 4.50 -1.85 0.95 -3.65 1.15 -3.95 0.45z"/>
  <path d="M307.25 146.70 c-6.90 -3.55 -8.35 -12.45 -2.95 -17.90 4.35 -4.30 11.20 -4.35 15.50 -0.05 2.55 2.60 3.35 4.90 3.10 9.05 -0.40 6 -4.50 9.70 -10.85 9.70 -2 0 -3.90 -0.30 -4.80 -0.80z"/>
 </g>
 <g fill="#0180c7">
  <path d="M38.75 262.15 c-11.30 -1.40 -20.65 -9.60 -23.45 -20.55 -0.75 -2.75 -0.80 -13.55 -0.70 -107.70 0.15 -114.45 -0.10 -104.30 2.65 -110.15 2.10 -4.40 7.10 -9.55 11.80 -12 6.40 -3.35 3.70 -3.25 71.05 -3.25 42 0 61.65 0.15 63.50 0.55 7.35 1.50 14.95 7.05 18.55 13.50 3.60 6.45 3.35 -2.25 3.35 113.30 l0 104.20 -1.05 3.10 c-2.85 8.45 -8.90 14.60 -17.50 17.75 l-3.70 1.35 -61.50 0.05 c-33.80 0.05 -62.15 0 -63 -0.15z m124 -3.85 c9.35 -2 15.60 -7.80 18.65 -17.35 0.75 -2.20 0.85 -77.95 0.15 -77.95 -0.25 0 -1.95 0.90 -3.75 2 -9.70 5.90 -25 12.40 -36.80 15.55 -4.15 1.15 -13.40 3.05 -18.75 3.90 -13.85 2.15 -29.90 2.15 -44 0 -10.35 -1.55 -24.95 -5.25 -31.50 -7.90 -11.75 -4.85 -16.35 -7.05 -24.40 -11.60 -1.90 -1.10 -3.65 -1.95 -3.90 -1.95 -0.25 0 -0.45 15.45 -0.45 37.90 0 36.65 0.05 38.05 1 41 2.90 8.75 9.10 14.40 18 16.40 4.10 0.90 121.50 0.95 125.75 0z m-107 -109.85 c2.25 -0.60 5.25 -2.45 5.25 -3.20 0 -0.25 -0.55 -1.15 -1.20 -2 l-1.20 -1.50 -2.10 1.20 c-2.60 1.45 -5.05 1.20 -7.05 -0.75 -5.10 -4.90 1.30 -12.40 7.35 -8.70 l1.60 1.05 1.40 -1.80 c1.25 -1.70 1.30 -1.80 0.45 -2.75 -0.45 -0.50 -1.90 -1.30 -3.15 -1.70 -6.40 -2.20 -12.35 1 -14.10 7.60 -1.45 5.55 2.50 11.40 8.50 12.65 0.95 0.20 1.85 0.35 2 0.40 0.15 0 1.15 -0.20 2.25 -0.50z m65.65 0.25 c0.90 -0.25 1.10 -0.65 1.10 -2.25 0 -1.70 -0.15 -1.95 -1.15 -1.95 -2.05 0 -2.35 -0.85 -2.35 -7.05 l0 -5.90 1.90 -0.15 c1.70 -0.15 1.85 -0.30 2 -1.75 0.15 -1.55 0.10 -1.60 -2 -1.75 l-2.15 -0.15 0.15 -1.85 0.20 -1.90 -2.55 0 -2.50 0 -0.15 1.85 c-0.15 1.65 -0.30 1.90 -1.40 1.90 -1.10 0 -1.25 0.25 -1.40 1.90 -0.15 1.75 -0.10 1.85 1.35 1.85 l1.55 0 0 6.30 c0 4.75 0.20 6.70 0.80 8 0.45 0.95 0.85 1.70 0.90 1.70 0 0 0.95 0.35 2.05 0.75 2.35 0.85 2.20 0.80 3.65 0.45z m17.40 -0.45 c1.55 -0.45 3.15 -1.40 4.20 -2.50 l1.75 -1.80 -1.50 -1.20 c-1.85 -1.50 -1.80 -1.50 -3.55 0 -3 2.55 -9.10 1 -9.20 -2.35 0 -0.80 0.65 -0.90 7.25 -0.90 l7.25 0 0 -1.60 c0 -2.45 -0.95 -5.40 -2.35 -7.20 -2.35 -3.10 -7.90 -4.15 -11.95 -2.20 -3.45 1.70 -6.10 6.65 -5.55 10.50 0.65 4.95 3.75 8.65 7.90 9.45 3.10 0.60 3 0.60 5.75 -0.20z m24.75 -0.80 c3.10 -1.55 3.35 -2.25 1.45 -4.20 l-1.65 -1.70 -1.55 1.25 c-4.25 3.60 -11 -1.80 -8.60 -6.90 1.55 -3.25 5.50 -4.35 8.70 -2.40 l1.65 1 1.20 -1.35 c1.75 -2 1.55 -2.95 -0.85 -4.25 -4.10 -2.15 -10 -1.35 -12.95 1.75 -3.45 3.65 -3.95 9.45 -1.15 13.45 3.15 4.50 8.70 5.90 13.75 3.35z m-86.50 0.70 c1.05 -0.20 2.55 -1.20 4 -2.65 6.45 -6.45 2.75 -16.75 -6.45 -17.85 -2 -0.20 -3 -0.05 -5.20 1 -6.95 3.15 -8.45 11.60 -3.05 17.05 2.50 2.55 6.10 3.40 10.70 2.45z m15.45 -5.70 c0 -4.75 0.20 -6.35 0.85 -7.45 1.50 -2.55 4.75 -3.40 7.45 -2 2.20 1.20 2.70 2.90 2.70 9.50 l0 6 2.50 0 2.50 0 0 -6.50 c0 -5.50 -0.15 -6.85 -0.95 -8.45 -3.20 -6.25 -11.20 -7.95 -16.35 -3.45 -3.15 2.80 -3.70 4.50 -3.70 11.90 l0 6.50 2.50 0 2.50 0 0 -6.05z m-53.50 -3.45 l0 -9 -2.25 0 -2.25 0 0 9 0 9 2.25 0 2.25 0 0 -9z m-0.45 -11.50 c1.05 -0.60 1.25 -2.50 0.45 -4.05 -0.60 -1.10 -3.40 -1.35 -4.40 -0.35 -0.90 0.90 -0.75 3.75 0.30 4.35 1.10 0.65 2.40 0.70 3.65 0.05z m72.20 -19.50 c3.95 -1.25 10.25 -4.40 10.25 -5.10 0 -0.70 -2.55 -3.90 -3.10 -3.90 -0.30 0 -1.10 0.40 -1.80 0.95 -0.75 0.50 -3.05 1.55 -5.10 2.35 -3.50 1.30 -4.25 1.40 -11 1.45 -7 0 -7.40 -0.05 -11.25 -1.65 -2.20 -0.85 -5.20 -2.50 -6.65 -3.60 -1.45 -1.10 -2.70 -2 -2.80 -2 -0.25 0 -1.95 1.60 -2.95 2.85 -0.90 1.05 -0.90 1.05 2.40 3.40 3.75 2.70 8.90 5 13.45 6.05 4.50 1 14.05 0.60 18.55 -0.80z m16.10 -9.60 c4.45 -4.80 7.75 -10.65 9.45 -16.95 1.25 -4.50 1.25 -14.05 0 -18.45 -1.10 -3.90 -5.15 -12.50 -6.10 -12.85 -0.65 -0.25 -14.85 8.25 -14.60 8.80 0.10 0.15 1.05 2.05 2.10 4.20 1.75 3.50 2 4.45 2.20 8.30 0.20 3.80 0.05 4.75 -1.05 7.45 l-1.25 3.10 1.90 1.50 c1.05 0.85 2.05 1.50 2.20 1.50 0.15 0 0.85 -1.10 1.50 -2.40 2.70 -5.30 2.95 -13.30 0.65 -19.05 l-1.25 -3.05 2.80 -1.60 c3.30 -1.85 3.35 -1.80 5.15 3.75 1.70 5.10 1.70 14.55 0 19.35 -1.35 3.95 -4.35 9.05 -6.75 11.70 -1 1.05 -1.80 2.15 -1.80 2.40 0 0.60 2.50 3.90 2.95 3.90 0.20 0 1.05 -0.75 1.90 -1.60z m-19.75 -1.85 c3.80 -1.05 8.15 -3.50 10.50 -5.90 1.75 -1.80 1.60 -2.35 -1.30 -3.90 l-1.70 -0.95 -2.15 1.90 c-3.60 3.30 -5.90 4.05 -12.20 4.05 -4.90 0 -5.80 -0.15 -8.35 -1.35 -8.10 -3.75 -12.90 -12.70 -11.45 -21.20 1.15 -6.55 5 -11.75 10.90 -14.75 3.20 -1.60 3.70 -1.70 8.65 -1.70 4.85 0 5.50 0.10 8.55 1.55 l3.30 1.55 1.90 -1.30 c1.05 -0.70 2 -1.55 2.10 -1.90 0.10 -0.30 -1.65 -1.50 -3.95 -2.60 -6.30 -3.15 -12.40 -3.80 -18.50 -2.10 -6.60 1.80 -12.50 6.55 -15.55 12.50 -2.50 4.80 -3 7.25 -2.75 13.20 0.15 4.95 0.30 5.45 2.25 9.45 3.35 6.70 9.45 11.90 16.15 13.70 3.45 0.95 9.75 0.85 13.60 -0.25z m-31.35 -3.50 c-0.10 -0.15 -1.15 -1.75 -2.35 -3.55 -6.05 -9.05 -6.75 -21.50 -1.80 -31.45 l1.60 -3.20 -1.70 -1.40 c-0.95 -0.80 -2 -1.45 -2.30 -1.45 -0.30 0 -1.40 1.65 -2.40 3.65 -6.15 12.50 -4.80 27.90 3.50 39.05 l1.80 2.40 1.95 -1.85 c1.05 -1.05 1.85 -2.05 1.70 -2.20z m30 -8.55 c4.50 -2 7.25 -6.15 7.65 -11.55 0.25 -3.85 -0.70 -6.55 -3.45 -9.70 -5.15 -5.85 -15 -5.65 -20.20 0.40 -1.85 2.15 -3.25 5.90 -3.25 8.60 0 4.30 2.90 9.35 6.75 11.75 3.35 2.10 8.50 2.30 12.50 0.50z m-28 -34.85 l1.80 -1.80 -1.60 -1.70 c-0.90 -0.90 -1.90 -1.65 -2.20 -1.65 -0.30 0 -1.30 0.75 -2.20 1.65 l-1.60 1.70 1.60 1.80 c0.90 1.05 1.80 1.85 2 1.85 0.20 0 1.15 -0.80 2.20 -1.85z m46.75 -1.75 c1.10 -0.65 2 -1.40 2 -1.75 0 -0.85 -5.30 -4.90 -9 -6.85 -5.45 -2.85 -10.25 -4 -17.50 -4 -7.05 -0.05 -10.80 0.85 -17.10 4 -3.75 1.90 -3.75 1.90 -1.30 4.80 l1.15 1.35 3.50 -1.70 c1.95 -0.95 4.85 -2.10 6.50 -2.50 3.85 -0.95 11.05 -0.95 14.95 0.05 3.95 1 9.70 3.85 12.15 5.95 1.05 0.95 2.10 1.70 2.30 1.75 0.20 0 1.30 -0.50 2.35 -1.10z"/>
  <path d="M98.80 229.35 c-0.50 -1.90 -0.35 -2.15 2.15 -3.05 1.35 -0.45 2.85 -1.30 3.35 -1.85 0.85 -0.95 0.80 -0.95 -1.55 -0.95 -2.10 0 -2.60 -0.25 -4.35 -2 -1.90 -1.90 -2 -2.15 -1.75 -4.30 0.40 -3.95 3.45 -6.10 7.70 -5.45 4.55 0.65 7.15 5.45 5.70 10.35 -1.10 3.60 -5.15 7 -9.60 8.05 -1.10 0.30 -1.40 0.15 -1.65 -0.80z m7.40 -9.60 c0.90 -0.95 0.20 -3.50 -1.20 -4.25 -2.70 -1.45 -5.55 0.55 -4.55 3.15 0.25 0.70 0.80 1.35 1.15 1.50 1.35 0.55 3.85 0.30 4.60 -0.40z"/>
  <path d="M46 218.50 l0 -10.50 2.50 0 2.50 0 0 10.50 0 10.50 -2.50 0 -2.50 0 0 -10.50z"/>
  <path d="M57 228.40 c-2.25 -0.65 -3 -1.30 -2.65 -2.30 0.15 -0.45 0.30 -1.10 0.40 -1.45 0.15 -0.40 0.80 -0.40 2.55 0.15 3.15 0.95 4 0.90 5.25 -0.35 1.25 -1.25 0.85 -1.90 -2.95 -4.30 -1.45 -0.95 -3.35 -2.40 -4.15 -3.30 -1.30 -1.30 -1.50 -1.85 -1.35 -3.80 0.20 -3.10 2.30 -4.55 6.35 -4.50 5 0.10 6.45 1.05 4.90 3.20 -0.65 0.85 -0.95 0.90 -2.75 0.35 -3.80 -1.15 -6.20 1.15 -3.40 3.25 0.70 0.50 2.45 1.65 3.95 2.60 3.10 1.90 4.05 3.30 4.05 5.85 0 3.80 -5 6.10 -10.20 4.60z"/>
  <path d="M74.75 228.05 c-3.70 -1.70 -5.75 -5.10 -5.75 -9.50 0 -4.10 1.90 -7.45 5.10 -9.10 3 -1.55 8.05 -1.20 10.50 0.65 2.50 1.90 3.60 4.50 3.60 8.40 0 5.15 -2.15 8.50 -6.40 9.75 -3.20 0.95 -4.60 0.95 -7.05 -0.20z m6.45 -3.15 c1.55 -0.65 3.30 -4.10 3.30 -6.30 0 -3.95 -2.45 -6.85 -5.75 -6.85 -3.85 0 -6.25 3.65 -5.55 8.45 0.65 4.25 4.30 6.40 8 4.70z"/>
  <path d="M117.20 228.50 c-1.85 -0.55 -4.55 -3.45 -5 -5.30 -0.20 -0.65 -0.20 -2.60 -0.10 -4.20 0.20 -2.60 0.45 -3.25 1.90 -4.75 6.80 -7 17.15 1 13.05 10.05 -1.55 3.40 -6.10 5.35 -9.85 4.20z m4.15 -3.55 c4.50 -1.55 3.75 -9 -0.95 -9.75 -1.60 -0.30 -2.05 -0.10 -3.40 1.20 -1.20 1.20 -1.50 1.95 -1.50 3.60 0 2.25 1.15 4.40 2.70 5 1.40 0.60 1.45 0.60 3.15 -0.05z"/>
  <path d="M134.75 228.40 c-3.50 -1.25 -5.25 -4.05 -5.25 -8.30 0 -5.15 3.05 -8.35 8 -8.35 3.45 0 5.10 1 6.90 4.05 2.20 3.75 0.75 9.70 -2.90 11.90 -1.80 1.05 -4.95 1.40 -6.75 0.70z m4.45 -3.45 c1.80 -0.85 3 -3.40 2.60 -5.60 -0.45 -2.45 -1.75 -3.85 -3.90 -4.20 -1.60 -0.25 -2.05 -0.05 -3.40 1.25 -2.10 2.15 -2.15 5.30 -0.05 7.55 1.55 1.65 2.75 1.90 4.75 1z"/>
  <path d="M151 222.45 c0 -4.65 -0.15 -6 -0.60 -5.80 -2.45 0.90 -2.75 0.85 -3.35 -0.45 -0.30 -0.75 -0.40 -1.50 -0.20 -1.70 0.90 -0.75 5.65 -2.50 6.85 -2.50 l1.30 0 0 8.25 0 8.25 -2 0 -2 0 0 -6.05z"/>
  <path d="M130.50 135.15 c0 -0.20 0.60 -1 1.35 -1.75 1.85 -1.95 4.95 -1.95 6.85 -0.10 0.70 0.75 1.30 1.55 1.30 1.75 0 0.25 -2.15 0.45 -4.75 0.45 -2.60 0 -4.75 -0.15 -4.75 -0.35z"/>
  <path d="M70.65 143 c-2 -1.20 -2.65 -2.40 -2.65 -5 0 -1.70 0.30 -2.40 1.70 -3.80 1.45 -1.45 2.05 -1.70 4.05 -1.70 2 0 2.60 0.25 4.05 1.70 4.85 4.85 -1.30 12.40 -7.15 8.80z"/>
  <path d="M96.40 79.50 c-2.50 -1.35 -4 -3.65 -4.30 -6.50 -0.80 -8.30 9.95 -12.05 14.65 -5.15 2.45 3.60 1.40 8.50 -2.35 11.30 -1.95 1.45 -5.70 1.60 -8 0.35z"/>
 </g>
 <g fill="#1e92cb">
  <path d="M53.35 318.45 c-1.05 -0.60 -2.35 -3.05 -2.35 -4.45 0 -1.50 2.40 -1.40 2.95 0.20 0.80 2 3.30 2.45 4.75 0.85 1.20 -1.30 0.75 -1.85 -2.60 -3.35 -3.35 -1.45 -4.55 -2.85 -4.60 -5.10 0 -2.35 0.70 -3.45 2.75 -4.10 3.75 -1.25 7.75 0.75 7.75 3.80 0 0.95 -0.25 1.20 -1.25 1.20 -0.70 0 -1.45 -0.40 -1.75 -1 -0.40 -0.75 -1.05 -1 -2.50 -1 -3 0 -2.60 1.25 0.85 2.80 1.60 0.65 3.25 1.60 3.75 2.05 2 1.80 1.55 6.30 -0.80 7.90 -1.15 0.85 -5.60 1 -6.95 0.20z"/>
  <path d="M66.55 317.45 c-3.80 -3.75 -3.05 -12.90 1.20 -14.85 3.05 -1.40 6.35 -0.40 7.95 2.35 0.95 1.65 0.95 1.70 0.05 2.35 -1.30 0.95 -2.30 0.85 -2.60 -0.25 -0.40 -1.50 -2.40 -2.35 -3.90 -1.65 -1.70 0.75 -2.40 2.75 -2.15 5.95 0.25 2.95 1.40 4.65 3.20 4.65 1.15 0 1.60 -0.35 2.90 -2.20 0.45 -0.65 0.95 -0.80 1.70 -0.60 1.60 0.50 1.40 2.55 -0.35 4.35 -1.25 1.20 -1.90 1.45 -3.95 1.45 -2.15 0 -2.75 -0.25 -4.05 -1.55z"/>
  <path d="M84.50 318.50 c0 -1.30 1.60 -4.05 3.70 -6.45 2.80 -3.15 3.50 -4.70 2.80 -6.10 -0.80 -1.45 -2.30 -1.20 -2.95 0.55 -0.35 1.15 -0.80 1.50 -1.75 1.50 -1.10 0 -1.30 -0.20 -1.30 -1.55 0 -2.20 2.35 -4.45 4.75 -4.45 5.20 0 5.80 6.85 1 11.50 -0.95 0.95 -1.75 1.90 -1.75 2.10 0 0.20 1.25 0.40 2.75 0.40 2.70 0 2.75 0 2.75 1.50 l0 1.50 -5 0 c-3.10 0 -5 -0.20 -5 -0.50z"/>
  <path d="M97.85 318.40 c-2.10 -1.60 -3.10 -8.50 -1.85 -13 1 -3.60 4.90 -4.60 7.15 -1.90 2.40 2.80 2.40 11.20 0 14 -1.35 1.65 -3.75 2.05 -5.30 0.90z m3.70 -3.90 c0.20 -0.70 0.35 -2.65 0.40 -4.30 0.05 -2.40 -0.15 -3.35 -0.95 -4.25 -1 -1.20 -1 -1.20 -1.75 -0.25 -0.90 1.15 -1.05 7.80 -0.20 9.35 0.70 1.35 2.05 1 2.50 -0.55z"/>
  <path d="M108.70 318.10 c-1.45 -1.15 -2.20 -3.65 -2.20 -7.35 0 -4.25 0.40 -6 1.80 -7.50 1.60 -1.75 3.85 -1.65 5.70 0.15 1.15 1.15 1.45 2.05 1.75 4.70 0.45 4 -0.35 8.20 -1.85 9.75 -1.30 1.40 -3.70 1.50 -5.20 0.25z m3.85 -3.60 c0.55 -2.05 0.50 -6.85 -0.15 -8.25 -0.65 -1.50 -1.65 -1.60 -2.40 -0.30 -0.65 1.30 -0.65 7.85 0.05 9.10 0.70 1.35 2.05 1 2.50 -0.55z"/>
  <path d="M121.50 313.50 c0 -3 -0.10 -5.50 -0.25 -5.50 -0.15 0 -0.70 0.45 -1.25 1 -0.60 0.60 -1.25 0.90 -1.50 0.75 -0.90 -0.55 -0.55 -2.70 0.50 -3.25 0.55 -0.30 1.60 -1.45 2.25 -2.50 0.80 -1.25 1.65 -2 2.25 -2 0.95 0 1 0.35 1 8.50 l0 8.50 -1.50 0 -1.50 0 0 -5.50z"/>
  <path d="M133.50 317.50 c0 -1.50 0 -1.50 -2.80 -1.50 l-2.85 0 0.30 -1.85 c0.15 -1.05 1.55 -4.20 3.15 -7 2.65 -4.65 3.05 -5.15 4.35 -5.15 l1.45 0 -0.15 5.35 c-0.10 4.80 -0.05 5.35 0.80 5.65 1.35 0.45 1.35 2.50 0 3 -0.85 0.35 -1.05 0.70 -0.90 1.70 0.25 1.20 0.15 1.30 -1.55 1.30 -1.65 0 -1.80 -0.10 -1.80 -1.50z m0.10 -6.75 c0.10 -1.25 0.05 -2.25 -0.10 -2.25 -0.25 0 -2.50 3.75 -2.50 4.20 0 0.20 0.55 0.30 1.20 0.30 1.05 0 1.20 -0.25 1.40 -2.25z"/>
  <path d="M143.50 313.15 l0 -5.85 -1.40 1.35 c-1.80 1.75 -2.10 1.70 -2.10 -0.35 0 -1.30 0.25 -1.80 1 -2.05 0.55 -0.15 1.45 -1.20 2.10 -2.30 0.75 -1.40 1.40 -1.95 2.25 -1.95 l1.15 0 0 8.50 0 8.50 -1.50 0 -1.50 0 0 -5.85z"/>
  <path d="M151.85 318.10 c-1 -1.05 -1.90 -3.40 -1.50 -3.80 0.70 -0.65 2.65 -0.25 3.15 0.70 0.70 1.25 1.80 1.30 2.50 0.05 0.95 -1.85 0.65 -2.35 -1.40 -2.15 -1.65 0.15 -2.10 -0.05 -3.25 -1.40 -2.80 -3.30 -1.05 -9.50 2.65 -9.50 4.25 0 5.65 2.40 5.40 9.25 -0.15 4.40 -0.25 4.80 -1.60 6.20 -1.75 1.80 -4.60 2.15 -5.95 0.65z m4.15 -9.15 c0.75 -1.30 0.45 -2.95 -0.60 -3.60 -1.15 -0.75 -2.40 0.40 -2.40 2.10 0 2.40 2 3.40 3 1.50z"/>
  <path d="M78 312.50 c0 -1.45 0.05 -1.50 2.50 -1.50 2.45 0 2.50 0.05 2.50 1.50 0 1.45 -0.05 1.50 -2.50 1.50 -2.45 0 -2.50 -0.05 -2.50 -1.50z"/>
  <path d="M46.50 262 c0 -0.40 15.55 -0.90 17.25 -0.50 0.30 0.05 5.35 0.05 11.25 0 12.90 -0.15 12.40 -0.15 14.25 -0.05 0.85 0.05 4.55 0.10 8.25 0.05 23.15 -0.20 54.50 0.10 54.50 0.50 0 0.30 -19.25 0.50 -52.75 0.50 -34.85 0 -52.75 -0.15 -52.75 -0.50z"/>
  <path d="M118.75 228.50 c0.15 -0.25 0.75 -0.50 1.30 -0.50 0.50 0 0.95 0.25 0.95 0.50 0 0.30 -0.60 0.50 -1.30 0.50 -0.70 0 -1.15 -0.20 -0.95 -0.50z"/>
  <path d="M136 228.50 c0 -0.25 0.55 -0.50 1.25 -0.50 0.70 0 1.25 0.25 1.25 0.50 0 0.30 -0.55 0.50 -1.25 0.50 -0.70 0 -1.25 -0.20 -1.25 -0.50z"/>
  <path d="M152.25 228 c0.15 -0.25 0.75 -0.50 1.30 -0.50 0.50 0 0.95 0.25 0.95 0.50 0 0.30 -0.60 0.50 -1.30 0.50 -0.70 0 -1.15 -0.20 -0.95 -0.50z"/>
  <path d="M63.25 212 c0.15 -0.25 0.75 -0.50 1.30 -0.50 0.55 0 0.85 0.25 0.70 0.50 -0.15 0.30 -0.75 0.50 -1.30 0.50 -0.55 0 -0.85 -0.20 -0.70 -0.50z"/>
  <path d="M112.50 185 c0 -0.25 0.35 -0.50 0.75 -0.50 0.40 0 0.75 0.25 0.75 0.50 0 0.30 -0.35 0.50 -0.75 0.50 -0.40 0 -0.75 -0.20 -0.75 -0.50z"/>
  <path d="M108.65 145.25 c0 -1.35 0.10 -1.90 0.20 -1.10 0.10 0.75 0.10 1.85 0 2.50 -0.10 0.60 -0.20 0 -0.20 -1.40z"/>
  <path d="M120.25 144 c0.15 -0.25 0.65 -0.50 1.05 -0.50 0.40 0 0.70 0.25 0.70 0.50 0 0.30 -0.45 0.50 -1.05 0.50 -0.55 0 -0.85 -0.20 -0.70 -0.50z"/>
  <path d="M53.50 143.50 c0 -0.25 0.35 -0.50 0.75 -0.50 0.40 0 0.75 0.25 0.75 0.50 0 0.30 -0.35 0.50 -0.75 0.50 -0.40 0 -0.75 -0.20 -0.75 -0.50z"/>
  <path d="M87 142.05 c0 -0.80 -0.30 -1.60 -0.60 -1.70 -0.40 -0.15 -0.30 -0.30 0.25 -0.30 0.65 -0.05 0.85 0.35 0.85 1.70 0 0.95 -0.10 1.75 -0.25 1.75 -0.15 0 -0.25 -0.65 -0.25 -1.45z"/>
  <path d="M108.65 140 c0 -1.50 0.10 -2.15 0.20 -1.35 0.10 0.75 0.10 1.95 0 2.75 -0.10 0.75 -0.20 0.10 -0.20 -1.40z"/>
  <path d="M135.40 139.65 c1.70 -0.10 4.40 -0.10 6 0 1.55 0.10 0.15 0.15 -3.15 0.15 -3.30 0 -4.60 -0.05 -2.85 -0.15z"/>
  <path d="M86 138.70 c0 -0.15 0.35 -0.60 0.75 -1 0.65 -0.70 0.75 -0.65 0.75 0.25 0 0.60 -0.30 1.05 -0.75 1.05 -0.40 0 -0.75 -0.15 -0.75 -0.30z"/>
  <path d="M49.50 127.50 c0 -0.25 0.35 -0.50 0.75 -0.50 0.40 0 0.75 0.25 0.75 0.50 0 0.30 -0.35 0.50 -0.75 0.50 -0.40 0 -0.75 -0.20 -0.75 -0.50z"/>
  <path d="M70 127.50 c0 -0.25 0.35 -0.50 0.75 -0.50 0.40 0 0.75 0.25 0.75 0.50 0 0.30 -0.35 0.50 -0.75 0.50 -0.40 0 -0.75 -0.20 -0.75 -0.50z"/>
  <path d="M156.35 127.15 c0.30 -0.70 3.15 -0.90 3.15 -0.20 0 0.25 -0.75 0.55 -1.70 0.65 -1.20 0.15 -1.60 0 -1.45 -0.45z"/>
  <path d="M52.15 126.90 c0.10 -0.35 0.50 -0.65 0.85 -0.65 0.35 0 0.75 0.30 0.90 0.65 0.10 0.35 -0.25 0.60 -0.90 0.60 -0.65 0 -1 -0.25 -0.85 -0.60z"/>
  <path d="M96.50 127 c0 -0.25 0.45 -0.50 1 -0.50 0.55 0 1 0.25 1 0.50 0 0.30 -0.45 0.50 -1 0.50 -0.55 0 -1 -0.20 -1 -0.50z"/>
  <path d="M133 127 c0 -0.25 0.35 -0.50 0.75 -0.50 0.40 0 0.75 0.25 0.75 0.50 0 0.30 -0.35 0.50 -0.75 0.50 -0.40 0 -0.75 -0.20 -0.75 -0.50z"/>
  <path d="M35.50 122 c0 -0.25 0.35 -0.50 0.75 -0.50 0.40 0 0.75 0.25 0.75 0.50 0 0.30 -0.35 0.50 -0.75 0.50 -0.40 0 -0.75 -0.20 -0.75 -0.50z"/>
  <path d="M104 103.50 c0 -0.25 0.35 -0.50 0.75 -0.50 0.40 0 0.75 0.25 0.75 0.50 0 0.30 -0.35 0.50 -0.75 0.50 -0.40 0 -0.75 -0.20 -0.75 -0.50z"/>
  <path d="M114.30 100.25 c-0.15 -0.45 0 -0.75 0.45 -0.75 0.80 0 1 0.80 0.30 1.20 -0.25 0.15 -0.55 -0.05 -0.75 -0.45z"/>
  <path d="M99 80 c0 -0.25 0.30 -0.50 0.70 -0.50 0.40 0 0.90 0.25 1.05 0.50 0.15 0.30 -0.15 0.50 -0.70 0.50 -0.60 0 -1.05 -0.20 -1.05 -0.50z"/>
  <path d="M94 47 c0 -0.25 0.30 -0.50 0.70 -0.50 0.40 0 0.90 0.25 1.05 0.50 0.15 0.30 -0.15 0.50 -0.70 0.50 -0.60 0 -1.05 -0.20 -1.05 -0.50z"/>
  <path d="M93.50 35 c0 -0.25 0.35 -0.50 0.75 -0.50 0.40 0 0.75 0.25 0.75 0.50 0 0.30 -0.35 0.50 -0.75 0.50 -0.40 0 -0.75 -0.20 -0.75 -0.50z"/>
  <path d="M103.50 35.30 c0 -0.10 0.55 -0.30 1.25 -0.40 0.70 -0.15 1.25 -0.05 1.25 0.15 0 0.25 -0.55 0.45 -1.25 0.45 -0.70 0 -1.25 -0.10 -1.25 -0.20z"/>
 </g>
</svg>